<?xml version="1.0" encoding="UTF-8" standalone="no"?>
<!-- Created with Inkscape (http://www.inkscape.org/) -->

<svg
   xmlns:dc="http://purl.org/dc/elements/1.1/"
   xmlns:cc="http://creativecommons.org/ns#"
   xmlns:rdf="http://www.w3.org/1999/02/22-rdf-syntax-ns#"
   xmlns:svg="http://www.w3.org/2000/svg"
   xmlns="http://www.w3.org/2000/svg"
   xmlns:sodipodi="http://sodipodi.sourceforge.net/DTD/sodipodi-0.dtd"
   xmlns:inkscape="http://www.inkscape.org/namespaces/inkscape"
   version="1.1"
   width="165"
   height="423"
   id="svg2985"
   xml:space="preserve"
   sodipodi:docname="body_back_423x165.svg"
   inkscape:version="0.92.3 (2405546, 2018-03-11)"><sodipodi:namedview
     pagecolor="#ffffff"
     bordercolor="#666666"
     borderopacity="1"
     objecttolerance="10"
     gridtolerance="10"
     guidetolerance="10"
     inkscape:pageopacity="0"
     inkscape:pageshadow="2"
     inkscape:window-width="1920"
     inkscape:window-height="1018"
     id="namedview90"
     showgrid="false"
     inkscape:zoom="9.499072"
     inkscape:cx="39.930096"
     inkscape:cy="33.466932"
     inkscape:window-x="-8"
     inkscape:window-y="-8"
     inkscape:window-maximized="1"
     inkscape:current-layer="svg2985"
     inkscape:snap-global="false" /><metadata
     id="metadata2991"><rdf:RDF><cc:Work
         rdf:about=""><dc:format>image/svg+xml</dc:format><dc:type
           rdf:resource="http://purl.org/dc/dcmitype/StillImage" /><dc:title /></cc:Work></rdf:RDF></metadata><defs
     id="defs2989"><clipPath
       id="clipPath3001"><path
         d="M 0,0 H 1313.7 V 3180 H 0 Z"
         id="path3003"
         inkscape:connector-curvature="0" /></clipPath></defs><g
     transform="matrix(1.2557078,0,0,1.2890366,-291.40627,-336.60186)"
     id="path1"><path
       d="m 266.351,340.145 c -0.674,6.258 1.963,12.522 3.365,18.487 0.99,4.212 0.922,8.6 1.885,12.832 0.869,3.818 1.497,7.581 1.667,11.5 0.013,0.308 0.982,0.113 0.966,-0.259 -0.328,-7.59 -2.256,-15.134 -3.25,-22.667 -0.882,-6.685 -4.413,-13.086 -3.667,-20.015 0.041,-0.387 -0.931,-0.204 -0.966,0.122 z"
       id="path5"
       inkscape:connector-curvature="0" /><path
       d="m 267.268,348.937 c -0.695,3.982 -1.245,7.987 -2,11.959 -0.691,3.633 -2.084,8.162 -2.084,11.817 0,0.294 0.966,0.112 0.966,-0.259 0,-3.594 1.392,-8.112 2.083,-11.683 0.77,-3.968 1.305,-7.977 2,-11.958 0.064,-0.368 -0.909,-0.2 -0.965,0.124 z"
       id="path7"
       inkscape:connector-curvature="0" /><path
       d="m 268.75,424.5 c -0.266,7.738 -1.009,15.105 -0.251,22.856 0.459,4.697 1.155,9.363 2.186,13.972 0.803,3.59 2.087,7.036 2.467,10.711 0.038,0.369 -0.932,0.583 -0.966,0.258 -0.495,-4.791 -2.296,-9.375 -3.165,-14.117 -0.85,-4.639 -1.54,-9.332 -1.721,-14.051 -0.255,-6.633 0.393,-13.196 0.469,-19.818 v 0 c 0.018,-0.564 -0.018,-0.353 -0.018,-0.686 0,-8.053 0,-14.833 1.708,-20.333 0.348,-1.121 0.542,-1.834 0.708,-2.667 0.166,-0.833 0.299,-1.689 0.375,-2.208 0.292,-2 0.187,-3.316 0.809,-6.272 0.651,-3.098 1.594,-6.089 1.917,-9.251 v 0 c 0.033,-0.326 1.005,-0.511 0.966,-0.121 -0.324,3.171 -1.467,6.12 -1.917,9.251 -0.43,2.992 -0.473,5.57 -0.848,7.57 -0.093,0.495 -1.071,4.263 -1.385,5.49 -0.917,3.583 -1.375,9.667 -1.375,17.708 -10e-4,0.375 0.083,0.5 0.041,1.708 z"
       id="path9"
       inkscape:connector-curvature="0" /><path
       d="m 292.102,479.797 c 0.28,4.883 0.322,9.426 -0.85,14.189 -0.44409,6.76196 1.45157,11.71163 0.26804,19.98179 -0.044,0.384 0.93777,-0.52174 0.97577,-0.84574 0.98567,-15.28449 -1.89299,-12.90184 0.15416,-21.01705 1.011,-4.112 0.657,-8.391 0.417,-12.566 -0.017,-0.31 -0.987,-0.11 -0.965,0.258 z"
       id="path13"
       inkscape:connector-curvature="0"
       sodipodi:nodetypes="cccccccc" /><path
       d="m 294.959,423.882 c 1.403,5.611 1.027,14.559 0.368,20.522 -0.826,7.475 -2.455,14.741 -2.142,22.309 0.013,0.315 0.981,0.119 0.966,-0.258 -0.334,-8.104 1.458,-15.975 2.343,-23.983 0.594,-5.375 0.648,-13.603 -0.599,-19.213 -0.082,-0.366 -1.767,0.83 -1.627,1.12 z"
       id="path15"
       inkscape:connector-curvature="0" /><path
       d="m 293.101,466.215 c 0.418,4.58 -0.29,9.007 -0.999,13.514 -0.06,0.379 0.914,0.209 0.966,-0.121 0.716,-4.549 1.421,-9.035 0.999,-13.652 -0.03,-0.32 -1,-0.11 -0.966,0.259 z"
       id="path17"
       inkscape:connector-curvature="0" /><path
       d="m 297.267,412.464 c 0.004,6.062 0.153,11.466 -6.819,13.452 -5.508,1.569 -11.088,1.479 -15.5,-2.521 -0.253,-0.229 -1.159,0.141 -0.897,0.379 4.858,4.405 10.525,4.048 16.526,2.625 7.373,-1.747 7.66,-7.396 7.655,-14.193 10e-4,-0.301 -0.965,-0.118 -0.965,0.258 z"
       id="path19"
       inkscape:connector-curvature="0" /><path
       d="m 297.102,416.978 c -0.04,6.936 2.586,9.337 9.259,10.402 5.271,0.841 10.587,-1.068 14.611,-4.381 0.431,-0.354 -0.533,-0.361 -0.775,-0.162 -4.157,3.421 -9.233,4.654 -14.521,3.811 -5.859,-0.935 -7.641,-4.185 -7.608,-9.79 0.002,-0.407 -0.965,-0.201 -0.966,0.12 z"
       id="path21"
       inkscape:connector-curvature="0" /><path
       d="m 299.09,423.492 c -1.325,9.118 0.019,19.368 0.959,28.158 0.549,5.126 1.649,10.064 1.6,15.244 -0.018,1.735 -0.275,3.503 -0.215,5.236 0.109,3.093 0.933,6.07 0.834,9.181 -0.014,0.4 0.955,0.198 0.965,-0.121 0.137,-4.264 -0.872,-8.356 -0.677,-12.674 0.214,-4.705 -0.466,-9.117 -1.129,-13.761 -1.382,-9.665 -2.571,-20.898 -1.402,-29.782 0.049,-0.369 -0.317,-1.108 -0.39,-0.779 z"
       id="path23"
       inkscape:connector-curvature="0" /><path
       d="m 302.269,480.479 c -0.229,4.172 -0.478,8.1 0.455,12.216 1.171,5.172 1.644,9.229 0.962,14.533 -0.049,0.38 0.924,0.201 0.965,-0.123 0.528,-4.11 0.898,-7.252 -0.075,-11.343 -1.271,-5.34 -1.644,-9.873 -1.342,-15.406 0.021,-0.392 -0.948,-0.195 -0.965,0.123 z"
       id="path25"
       inkscape:connector-curvature="0" /><path
       d="m 327.977,416.978 c 0.001,-0.008 -10e-4,-0.329 -0.004,-0.343 -0.102,-5.983 -1.23,-11.16 -2.739,-16.93 -0.761,-2.906 -0.635,-6.005 -1.077,-8.964 -0.684,-4.577 -1.696,-8.306 -1.134,-13.085 0.781,-6.629 2.034,-13.452 3.181,-20.031 1.078,-6.182 4.557,-12.771 3.447,-19.086 -0.059,-0.331 -1.029,-0.098 -0.967,0.259 1.157,6.581 -2.598,14.081 -3.728,20.565 -1.236,7.092 -2.708,14.606 -3.217,21.787 -0.201,2.83 0.283,5.587 1.052,8.299 0.845,2.977 0.811,6.1 1.207,9.153 0.366,2.815 1.467,5.571 2.162,8.319 0.841,3.328 0.82,6.883 0.856,10.293 0,0.009 0.009,0.014 0.01,0.021 -0.17,4.117 0.346,8.542 0.49,12.646 0.226,6.37 -0.229,13.231 -0.892,19.576 -0.602,5.769 -1.976,11.463 -2.951,17.177 -0.77,4.506 -1.14868,9.14292 -1.00068,13.74892 0,0.003 -0.006,0.342 -0.005,0.345 -0.148,8.432 -2.32087,15.25225 -0.39187,23.50125 0.073,0.255 0.198,0.521 0.293,1.058 1.246,4.255 -0.27749,12.07754 -0.86749,16.20654 -0.829,5.795 -0.58834,6.91501 -1.63334,12.65801 -0.067,0.369 0.906,0.203 0.965,-0.123 1.045,-5.741 0.77094,-5.37833 1.66494,-11.16033 0.662,-4.278 2.14589,-14.01322 0.68889,-18.29022 -2.061,-8.307 0.0679,-15.50925 0.21787,-24.02625 0.013,-0.029 -0.009,-0.277 -0.01,-0.31 -0.162,-5.034 0.49968,-10.53092 1.34268,-15.47392 0.976,-5.713 2.229,-11.357 2.831,-17.13 1.05,-10.07 -0.221,-20.626 0.209,-30.66 z"
       id="path29"
       inkscape:connector-curvature="0"
       sodipodi:nodetypes="cccccccccccccccccccccccccccccccc" /><path
       d="m 327.517,349.561 c -0.067,9.094 4.332,17.438 4.25,26.5 -0.003,0.406 0.964,0.201 0.967,-0.12 0.082,-9.07 -4.318,-17.402 -4.25,-26.5 0.002,-0.407 -0.964,-0.2 -0.967,0.12 z"
       id="path31"
       inkscape:connector-curvature="0" /><path
       d="m 331.767,376.13 c 0.116,7.78 1.698,14.725 4.565,21.934 1.226,3.081 2.385,6.18 3.66,9.242 1.357,3.26 3.149,5.992 3.357,9.574 0.019,0.311 0.988,0.111 0.967,-0.259 -0.182,-3.112 -1.471,-5.292 -2.75,-8.083 -1.604,-3.495 -2.866,-7.156 -4.269,-10.733 -2.835,-7.231 -4.449,-14.137 -4.564,-21.934 -0.004,-0.301 -0.971,-0.114 -0.966,0.259 z"
       id="path33"
       inkscape:connector-curvature="0" /><path
       d="m 360.384,421.229 c -1.436,-2.187 -2.355,-3.714 -4.257,-5.5 -2.964,-2.785 -4.161,-6.577 -5.1,-10.405 -1.509,-6.161 -0.699,-12.727 -1.781,-18.98 -1.011,-5.84 -3.995,-10.559 -4.22,-16.53 -0.23,-6.14 0.788,-12.012 -0.566,-18.055 -0.054,-0.32 -0.116,-0.555 -0.21,-0.867 -2.744,-9.149 2.841,-18.112 -2.656,-26.688 -0.006,-0.017 -0.281,-0.375 -0.5,-0.641 -5.511,-6.801 -13.061,-6.545 -20.749,-10.183 -1.522,-0.72 -3.063,-1.536 -4.735,-2.083 -3.702,-1.211 -6.439,-1.77 -7.289,-6.004 -0.918,-4.579 0.637,-8.951 1.083,-13.452 0.466,0.206 1.017,0.161 1.476,-0.261 1.257,-1.156 1.139,-3.353 1.287,-4.915 0.145,-1.524 1.679,-3.485 0.786,-4.925 -0.197,-0.319 -0.461,-0.398 -0.746,-0.344 1.614,-3.843 0.021,-9.848 -1.362,-13.068 -1.938,-4.51 -7.134,-6.674 -11.733,-7.02 -0.003,0 -0.004,-10e-4 -0.007,-10e-4 0,0 -0.564,-0.03 -0.593,-0.026 -4.829,-0.19 -9.119,1.25 -12.37,4.938 -3.462,3.927 -3.229,10.764 -2.27,15.825 -0.408,0.013 -0.842,0.234 -1.199,0.644 -0.912,1.047 0.471,3.835 0.604,5.047 0.149,1.348 0.013,3.284 1.338,4.088 0.397,0.241 0.873,0.281 1.283,0.173 0.927,4.523 4.587,15.292 -2.172,18.554 -0.803,0.388 -9.6,4.685 -13.803,5.606 -4.75,1.042 -8.833,1.532 -12.913,4.438 -7.281,5.185 -6.288,15.753 -5.379,23.478 0.355,5.255 -1.469,10.434 -1.449,15.707 0.021,5.496 0.95,10.977 -0.649,16.314 -0.008,0.014 -0.261,0.981 -0.313,1.125 -0.006,0.016 -0.281,0.813 -0.5,1.563 -2.531,7.844 -3.611,13.01 -3.844,21.156 -0.235,8.233 -3.187,13.046 -8.315,19.116 -0.344,0.407 -6.152,8.338 -3.716,8.884 1.813,0.406 2.873,-0.767 4.397,-2.787 0.865,-1.146 0.664,-0.463 0.482,0.805 0,0 -0.519,5.604 -1.388,9.611 -0.189,0.874 -1.092,4.78 0.762,4.821 3.112,0.069 2.854,-6.081 3.181,-7.919 0.113,-0.64 0.411,-3.262 0.825,-1.467 0.395,1.715 -0.16,3.82 -0.366,5.538 -0.146,1.213 -1.252,5.294 0.824,5.545 2.993,0.362 2.831,-8.555 2.96,-10.621 0.02,-0.321 -0.16,-1.278 0.422,-1.247 0.744,0.04 0.072,4.697 -0.02,5.952 -0.113,1.532 -0.966,4.653 0.609,5.581 1.044,0.615 1.645,-0.668 1.857,-1.255 1.053,-2.909 0.526,-6.235 0.942,-9.291 0.072,-0.528 0.05,-1.55 0.418,-1.541 0.368,0.009 0.323,1.487 0.336,1.728 0.057,1.03 0.046,2.394 0.071,3.422 0.031,1.313 -0.014,3.661 1.526,3.703 1.521,0.042 1.577,-1.73 1.599,-3.109 0.047,-2.941 -0.262,-4.326 -0.281,-7.281 l 0.031,-1.031 c -0.02,-0.744 0.03,-1.34 0.03,-1.783 0,-5.234 -0.367,-6.654 0.753,-11.797 1.019,-4.678 3.215,-9.087 5.354,-13.325 4.501,-8.918 4.505,-18.486 5.981,-28.082 0.059,-0.382 -0.915,-0.21 -0.966,0.12 -0.733,4.766 -0.651,9.529 -1.642,14.271 -1.24,5.936 -3.043,11.229 -5.774,16.643 -4.375,8.674 -4.571,14.287 -4.571,22.731 0,0.625 -0.003,0.931 -0.012,1.592 -0.032,2.579 0.333,5.019 0.377,7.598 0.03,1.727 -0.688,3.688 -1.344,2 -0.356,-0.916 -0.277,-2.217 -0.29,-3.189 -0.022,-1.654 0.15,-3.623 -0.46,-4.623 -0.396,-0.648 -1.212,-0.341 -1.53,0.063 -0.838,1.063 -0.473,3.45 -0.604,4.725 -0.173,1.683 -0.076,3.063 -0.281,4.746 -0.041,0.337 -0.563,2.393 -1.086,2.413 -0.804,0.031 -0.599,-1.684 -0.589,-2.353 0.026,-1.767 1.902,-9.736 -0.457,-9.572 -0.281,0.02 -0.684,0.182 -0.865,0.664 -0.643,1.711 -0.363,3.164 -0.558,4.981 -0.11,1.03 -0.208,2.264 -0.333,3.292 -0.335,2.223 -1.301,3.709 -1.737,2.686 -0.727,-1.705 0.415,-5.476 0.637,-7.349 0.173,-1.463 0.178,-2.532 -0.382,-3.912 -0.302,-0.744 -0.876,-0.51 -1.025,-0.503 -1.247,0.061 -1.344,5.128 -1.548,6.455 -0.122,0.794 -0.242,1.538 -0.423,2.32 -0.25,1.094 -0.792,1.781 -1.527,1.58 -0.735,-0.201 -0.048,-3.02 0.14,-4.041 0.743,-4.044 0.818,-6.704 1.428,-10.777 0.24,-1.605 -1.135,-1.699 -1.916,-0.105 -0.939,1.916 -4.479,3.999 -3.438,1.281 1.028,-2.684 3.095,-5.88 4.969,-7.875 1.866,-1.987 3.796,-4.915 5.094,-7.688 2.281,-4.875 2.275,-10.567 2.545,-15.878 0.3,-5.908 2.34,-11.536 4.07,-17.144 0,-0.001 0.001,-0.002 0.002,-0.003 0.011,-0.03 0.164,-0.506 0.276,-0.897 0.003,-0.011 -0.003,-0.018 -0.002,-0.027 1.267,-4.337 0.99,-9.68 0.858,-14.05 -0.219,-7.25 1.953,-11.977 1.438,-17.313 0.021,-0.034 -0.013,-0.526 -0.021,-0.573 -1.646,-9.875 -1.149,-23.206 11.661,-26.41 3.643,-0.911 7.081,-1.414 10.594,-2.834 3.469,-1.402 6.125,-2.761 9.164,-4.173 0.028,-0.009 0.057,-0.015 0.084,-0.028 7.56,-3.691 3.332,-14.658 2.749,-19.29 -0.003,-0.026 -0.039,-0.479 -0.052,-0.499 10e-4,-0.007 0.006,-0.014 0.008,-0.021 0.125,-0.609 -0.647,-0.414 -0.799,-0.133 -0.933,1.734 -1.664,-2.321 -1.714,-2.887 -0.059,-0.664 -0.124,-1.297 -0.313,-1.937 -0.154,-0.519 -0.299,-1.036 -0.421,-1.563 -0.062,-0.284 -0.105,-0.571 -0.13,-0.861 -0.172,-0.777 0.373,-0.997 0.748,-0.219 0,10e-4 0,0.003 10e-4,0.005 0.001,0.006 0.008,0.009 0.011,0.016 0.003,0.007 0.022,0.032 0.028,0.042 0.011,0.015 0.098,0.085 0.143,0.089 0.385,0.213 0.846,-0.139 0.784,-0.405 -0.868,-3.742 -1.182,-7.628 -0.614,-11.434 1.012,-6.784 7.526,-10.238 13.924,-10.012 5.767,0.334 10.332,3.018 12.254,8.591 1.055,3.057 2.029,8.975 0.063,11.94 -0.192,0.194 -0.357,0.374 -0.47,0.49 -0.182,0.094 -0.296,0.217 -0.178,0.308 0.015,0.012 0.029,0.023 0.044,0.034 0.227,0.173 0.642,0.076 0.836,-0.109 0.169,-0.16 0.338,-0.333 0.495,-0.48 0.032,-0.021 0.063,-0.043 0.081,-0.069 0.002,-0.003 0.004,-0.007 0.006,-0.01 0.461,-0.411 0.787,-0.52 0.6,0.761 -0.147,1.002 -0.724,1.895 -0.915,2.887 -0.158,0.821 -0.167,1.681 -0.258,2.512 -0.052,0.46 -0.774,3.297 -1.521,1.938 0,-0.004 0.001,-0.007 0.001,-0.011 0.019,-0.401 -0.951,-0.204 -0.967,0.12 -0.307,6.416 -4.981,17.954 3.947,20.391 5.186,1.416 9.852,4 15.063,5.476 5.596,1.585 9.538,3.199 13.074,7.847 5.5,8.373 0.158,17.939 2.739,26.875 0,0.016 -0.009,0.03 -0.005,0.046 1.553,6.16 0.708,12.418 0.711,18.691 0.003,6.356 3.44,12.03 4.525,18.3 1.091,6.302 0.363,12.67 1.897,18.933 1.476,6.023 5.747,9.342 9.004,14.302 0.179,0.271 1.118,-0.044 0.899,-0.376 z"
       id="path35"
       inkscape:connector-curvature="0" /><path
       d="m 356.386,423.522 c 1.519,1.323 2.513,3.307 4.48,4.043 0.654,0.245 1.901,0.321 2.271,-0.448 0.43,-0.898 -0.457,-2.224 -0.874,-2.97 -0.598,-1.068 -1.501,-2.338 -2.195,-3.372 -0.207,-0.308 -0.93,0.24 -0.784,0.499 0.847,1.508 2.003,2.877 2.688,4.481 0.155,0.361 0.278,0.534 0.269,0.934 -0.017,0.706 -1.456,0.004 -1.674,-0.148 -1.29,-0.903 -2.102,-2.365 -3.282,-3.394 -0.257,-0.222 -1.158,0.15 -0.899,0.375 z"
       id="path37"
       inkscape:connector-curvature="0" /><path
       d="m 356.22,423.234 c -0.948,0.702 -0.104,2.583 0.089,3.535 0.556,2.733 1.63,5.365 2.197,8.117 0.238,1.16 0.85,2.065 0.637,3.497 -0.554,0.492 -1.373,0.153 -1.498,-1.077 -0.245,-0.633 -0.357,-1.37 -0.513,-2.033 -0.451,-1.928 -0.705,-5.18 -2.303,-6.539 -0.247,-0.21 -0.716,-0.042 -0.898,0.178 -0.243,0.292 -0.267,0.576 -0.338,0.95 -0.07,0.373 0.903,0.21 0.967,-0.121 0.032,-0.286 0.122,-0.556 0.271,-0.807 -0.299,0.059 -0.599,0.118 -0.898,0.178 2.119,1.804 2.02,6.572 2.992,9.089 0.338,0.874 1.874,1.748 2.716,0.906 1.229,-1.229 -0.081,-4.028 -0.405,-5.652 -0.422,-2.106 -1.082,-4.16 -1.763,-6.194 -0.179,-0.536 -1.085,-3.246 -0.5,-3.68 0.441,-0.327 0.245,-0.703 -0.343,-0.543 z"
       id="path39"
       inkscape:connector-curvature="0" /><path
       d="m 343.352,416.714 c 0.161,6.963 -0.583,13.663 0.059,20.271 0.163,1.678 1.805,1.837 2.521,1.043 0.544,-0.604 0.531,-1.717 0.639,-2.472 0.206,-1.448 0.141,-2.984 0.219,-4.446 0.114,-2.14 0.898,-0.875 0.881,0.952 -0.011,1.077 -0.703,9.298 1.362,9.354 2.409,0.065 1.822,-3.968 1.875,-5.401 0.071,-1.946 -0.178,-3.89 -0.061,-5.832 0.152,-0.537 0.671,-0.607 0.804,0.154 0.061,0.697 0.094,1.396 0.097,2.096 0.047,1.728 0.289,3.462 0.506,5.175 0.223,1.76 0.915,3.783 2.839,2.566 1.772,-1.12 -0.972,-8.608 -0.44,-10.566 0.086,-0.317 -0.917,-0.421 -0.98,-0.122 -0.356,1.691 0.124,3.035 0.498,5.076 0.077,0.423 0.387,2.017 0.464,2.44 0.48,2.28 -0.659,3.028 -1.186,1.72 -0.581,-1.559 -0.552,-3.438 -0.703,-5.086 -0.143,-1.55 0.018,-5.985 -2.127,-4.615 -0.766,0.489 -0.813,1.421 -0.79,2.245 0.078,2.892 0.242,5.771 -0.098,8.651 -0.154,1.308 -1.205,0.114 -1.187,-2.13 0.014,-1.638 0.133,-3.151 0.07,-4.791 -0.055,-1.396 0.293,-3.313 -1.053,-4.116 -0.22,-0.132 -0.734,-0.079 -0.908,0.071 -1.042,0.899 -0.831,2.312 -0.899,3.604 -0.062,1.171 -0.044,2.773 -0.169,3.824 -0.125,1.051 -1.229,2.279 -1.425,-0.695 -0.147,-2.251 0.054,-5.651 0.142,-8.674 0.102,-3.514 0.099,-7.042 0.018,-10.556 -0.009,-0.31 -0.976,-0.119 -0.968,0.26 z"
       id="path41"
       inkscape:connector-curvature="0" /><path
       d="m 288.687,332.56 c -0.809,2.934 -1.544,5.917 -2.709,8.735 -0.451,1.091 -1.069,2.243 -2.043,2.952 -1.167,0.85 -2.779,0.074 -3.883,-0.481 -0.283,-0.142 -1.17,0.267 -0.769,0.469 7.458,3.75 8.987,-6.778 10.37,-11.794 0.096,-0.352 -0.876,-0.21 -0.966,0.119 z"
       id="path43"
       inkscape:connector-curvature="0" /><path
       d="m 305.333,332.481 c 0.546,4.551 2.173,17.257 9.388,11.929 0.439,-0.324 -0.532,-0.331 -0.773,-0.152 -5.984,4.42 -7.272,-8.903 -7.647,-12.035 -0.039,-0.318 -1.011,-0.101 -0.968,0.258 z"
       id="path45"
       inkscape:connector-curvature="0" /><path
       d="m 297.017,322.561 c -0.478,12.673 0.823,25.289 0.231,37.984 -0.561,12.039 -0.481,24.037 -0.481,36.081 0,0.298 0.966,0.116 0.966,-0.259 0,-0.166 0,-0.331 0,-0.496 0,-0.299 -0.966,-0.116 -0.966,0.259 0,0.166 0,0.331 0,0.496 0,0.298 0.966,0.116 0.966,-0.259 0,-11.999 -0.046,-23.951 0.481,-35.944 0.558,-12.693 -0.708,-25.313 -0.231,-37.984 0.015,-0.398 -0.954,-0.197 -0.966,0.122 z"
       id="path47"
       inkscape:connector-curvature="0" /><path
       d="m 279.032,485.117 c -0.219,2.191 -0.394,4.338 0,6.52 0.059,0.326 1.029,0.092 0.966,-0.258 -0.385,-2.136 -0.214,-4.242 0,-6.385 0.037,-0.385 -0.935,-0.198 -0.966,0.123 z"
       id="path49"
       inkscape:connector-curvature="0" /><path
       d="m 286.374,485.631 c 0.878,1.979 0.45,4.263 -0.445,6.161 -0.135,0.286 0.82,0.184 0.965,-0.123 0.909,-1.927 1.337,-4.288 0.446,-6.298 -0.148,-0.332 -1.095,-0.03 -0.966,0.26 z"
       id="path51"
       inkscape:connector-curvature="0" /><path
       d="m 308.177,484.893 c -0.195,2.029 0.014,3.995 0.89,5.855 0.159,0.337 1.104,0.031 0.967,-0.26 -0.856,-1.816 -1.081,-3.725 -0.89,-5.715 0.037,-0.393 -0.935,-0.209 -0.967,0.12 z"
       id="path53"
       inkscape:connector-curvature="0" /><path
       d="m 315.296,484.518 c 0.832,2.026 0.922,4.373 -0.188,6.314 -0.227,0.396 0.743,0.29 0.898,0.018 1.16,-2.027 1.131,-4.46 0.257,-6.59 -0.139,-0.337 -1.09,-0.043 -0.967,0.258 z"
       id="path55"
       inkscape:connector-curvature="0" /><path
       d="m 288,284.534 c 2.543,5.097 5.642,5.428 10.999,5.436 4.567,0.007 7.263,-1.553 8.652,-5.87 0.11,-0.342 -0.86,-0.21 -0.967,0.119 -0.344,1.069 -0.659,2.013 -1.238,3.003 -1.558,2.662 -5.785,2.19 -8.337,2.192 -4.235,0.002 -6.336,-1.518 -8.143,-5.138 -0.168,-0.338 -1.109,-0.029 -0.966,0.258 z"
       id="path57"
       inkscape:connector-curvature="0" /><path
       d="m 254.483,377.175 c 1.185,1.73 3.187,1.374 4.217,-0.163 0.251,-0.375 -0.723,-0.288 -0.9,-0.023 -0.274,0.41 -0.701,1.061 -1.275,0.971 -0.474,-0.074 -0.894,-0.798 -1.145,-1.165 -0.186,-0.271 -1.123,0.05 -0.897,0.38 z"
       id="path59"
       inkscape:connector-curvature="0" /><path
       d="m 335.438,378.828 c 0.109,0.25 0.19,0.422 0.391,0.609 0.161,0.152 0.204,0.208 0.39,0.295 0.424,0.199 1.023,0.125 1.457,0.009 1.012,-0.272 1.452,-1.247 1.683,-2.178 0.088,-0.353 -0.884,-0.203 -0.965,0.123 -0.2,0.803 -0.385,2.034 -1.39,1.818 -0.267,-0.08 -0.44,-0.176 -0.612,-0.567 -0.191,-0.514 -0.203,-0.5 -0.275,-0.751 -0.091,-0.316 -1.12,-0.2 -0.881,0.095 z"
       id="path61"
       inkscape:connector-curvature="0" /></g><path
     style="fill:#000000;fill-opacity:1;stroke:none;stroke-width:1.02250934px;stroke-linecap:butt;stroke-linejoin:miter;stroke-opacity:1"
     d="m 89.817988,317.4963 1.27242,-0.484 -0.86344,14.9246 c 0.12992,8.777 1.38172,20.1248 3.17695,30.3467 1.31263,6.1573 1.74009,9.8381 0.52053,14.0348 -0.68118,0.6805 0.38462,3.0802 0.52054,3.7507 -2.78095,2.4179 -1.14534,5.8534 -0.80972,7.2384 1.28333,3.0716 1.50463,6.7097 1.7211,10.3784 0.53033,11.6357 -3.63248,8.5771 -3.395,16.8347 0.53382,1.9736 1.77537,2.4696 2.61092,2.5495 2.07193,0.695 13.706562,-1.6628 14.252722,-3.203 1.08244,-0.2769 0.28807,-6.9497 0.48086,-11.507 -0.92248,-10.111 -0.1234,-6.6058 -1.90865,-13.4299 -0.23532,-4.9433 0.86186,-4.9377 1.31334,-7.2948 0.32266,-0.4831 -1.91264,-1.8193 -1.31334,-4.3203 1.104,-10.094 1.86101,-19.9025 3.16292,-25.3389 l 1.15675,-0.121 c -1.38157,5.5376 -1.95134,15.6041 -3.134,25.8229 -0.62931,1.7827 1.53849,2.238 1.27244,4.5069 -1.13581,4.3366 -1.61538,3.2718 -1.24352,7.0476 1.35345,4.5726 1.1247,6.4807 1.73513,12.5226 -0.19279,4.9203 0.53541,12.3199 -0.82787,13.2613 -0.96016,1.6059 -13.915332,3.8534 -15.062462,3.2636 -1.19374,-0.2989 -3.18949,-1.4838 -3.47847,-3.5175 -0.3353,-9.2726 3.6633,-4.9917 3.22147,-17.1269 -0.13412,0.4947 0.15021,-6.0149 -1.83677,-10.5097 -0.12037,-1.0868 -1.9055,-4.6311 0.9254,-7.6618 -0.2699,-0.5103 -0.53983,-1.9344 -0.80973,-2.9038 1.50115,-4.7998 1.22554,-6.1179 -0.10164,-13.3357 -0.72453,-7.4617 -3.10088,-15.4133 -3.13727,-25.4021 z"
     id="path2366"
     inkscape:connector-curvature="0"
     sodipodi:nodetypes="ccccccccccccccccccccccccccccccc" /><path
     style="fill:#000000;fill-opacity:1;stroke:none;stroke-width:0.96228701px;stroke-linecap:butt;stroke-linejoin:miter;stroke-opacity:1"
     d="m 93.064288,417.0854 c 2.68825,-0.9544 -0.7931,3.6452 -0.16358,4.1674 0.90088,1.2302 2.53959,0.8631 3.08774,0.6062 0.0574,-0.1292 0.55862,-0.092 0.67482,-1.3639 -0.51368,-0.9097 0.53638,-1.2997 0.61347,-0.2654 0.0951,0.778 0.41771,0.8105 0.65435,0.7956 1.7901,-0.1222 1.95365,-0.339 3.639862,-1.326 1.26409,-1.0264 4.07047,-0.9807 4.47827,-2.1783 0.007,-2.0718 0.41606,-2.0921 0.67481,-2.0271 l 1.06332,-0.322 c -0.45441,0.2977 -1.05407,1.2713 -0.92019,2.5573 0.0452,1.2684 -4.20858,2.3929 -5.37799,3.6182 -2.452552,1.1611 -3.332432,0.074 -4.376032,0.3031 l -0.593,0.7198 c -1.3784,0.9906 -3.5796,0.4168 -4.28372,-0.614 -1.11365,-1.2519 1.53502,-6.8605 0.2553,-5.4289 z"
     id="path2373"
     inkscape:connector-curvature="0"
     sodipodi:nodetypes="ccccccccccccccccc" /><path
     style="fill:#000000;fill-opacity:1;stroke:none;stroke-width:1.12229371px;stroke-linecap:butt;stroke-linejoin:miter;stroke-opacity:1"
     d="m 93.982288,378.7698 c 3.01736,-3.0716 3.52302,-1.2543 4.56917,-0.8016 3.177272,2.937 5.739482,6.4875 6.438132,8.3092 1.14674,4.6299 -1.18274,7.1888 -0.75188,1.8949 -0.18726,-3.6256 -5.178852,-8.6716 -6.043202,-8.9402 -1.89317,-1.5513 -1.81279,-0.8594 -4.06266,1.2617 z"
     id="path2375"
     inkscape:connector-curvature="0"
     sodipodi:nodetypes="ccccccc" /><path
     style="fill:#000000;fill-opacity:1;stroke:none;stroke-width:1.017923px;stroke-linecap:butt;stroke-linejoin:miter;stroke-opacity:1"
     d="m 51.529485,271.87395 2.660525,17.26662 -0.347016,7.67406 0.69405,3.35739 -2.824134,22.50288 c -0.1251,12.2708 0.564142,8.585 2.665659,28.7268 0.651816,4.339 1.39855,22.9503 1.4343,26.4378 -0.419667,0.9349 0.279941,0.9818 -0.719709,2.9188 1.204025,1.3341 0.846875,4.1483 0.488359,4.0358 -0.658234,4.6413 -1.966467,8.1037 -1.850809,14.149 0.287425,4.7962 0.604484,12.0263 2.082159,14.3888 0.445833,1.2429 0.972791,2.2754 1.8508,2.3982 4.249741,1.4499 5.830633,0.9402 10.291691,1.1115 3.806398,-0.8414 3.992048,-1.5098 4.395658,-2.1583 0.27252,-1.1283 0.66397,-3.1177 -0.69405,-8.1657 -1.60773,-5.2608 -4.647566,-2.2869 -3.904883,-13.8416 l 2.311103,-8.7231 c -0.786245,-3.9152 -0.75792,-3.0527 -1.822745,-4.422 -0.363308,-2.0783 0.224242,-2.9821 1.128692,-3.9654 -1.529841,-3.7643 -1.114667,-2.8652 -1.100633,-5.598 -0.287267,-19.6715 6.518686,-35.0193 6.399136,-43.8705 l 1.17078,-1.5819 c 0.79665,9.8568 -6.929525,26.0726 -6.297475,45.3324 -0.785583,2.5984 0.285395,3.9118 0.855225,5.9081 -0.32115,1.155 -2.729449,2.8586 -0.0992,3.6058 0.84563,0.8021 1.32367,1.816 1.16839,4.7319 -1.23007,3.2 -2.229815,8.4689 -2.127665,9.3372 -1.982649,8.0326 2.480965,8.5149 3.755345,13.5813 0.2053,0.039 1.23653,4.1445 0.53045,8.3909 -1.1942,1.667 -3.14078,2.1899 -4.954186,2.758 -0.467509,-0.01 -0.593484,1.3815 -11.930992,-0.9917 -0.733441,-0.8333 -1.5506,-1.0592 -2.08215,-3.3574 -1.274066,-3.1517 -1.7424,-10.0723 -2.082158,-15.1084 0.171342,-3.11 0.919183,-8.212 1.735133,-13.5494 1.150325,-4.5454 -0.173325,-1.8877 -0.0934,-4.6395 0.815509,-1.393 0.687067,-2.3021 0.44045,-3.0346 0.455625,-1.7714 -1.458225,-25.453 -2.696441,-32.3439 -2.055059,-11.4366 -2.258459,-16.8771 -1.750542,-20.7822 0.468358,-10.9917 1.959858,-16.6806 2.9398,-25.02092 l -0.694058,-2.87777 0.694058,-6.95461 -3.007558,-17.50644 z"
     id="path2381"
     inkscape:connector-curvature="0"
     sodipodi:nodetypes="ccccccccccccccccccccccccccccccccccccscccccc" /><path
     style="fill:#000000;fill-opacity:1;stroke:none;stroke-width:1.00007641px;stroke-linecap:butt;stroke-linejoin:miter;stroke-opacity:1"
     d="m 69.870388,379.1812 -3.011669,-1.3707 c -0.500409,-0.074 -0.718559,-0.6788 -5.610259,3.4144 -1.9327,3.2021 -2.436208,6.5679 -3.50995,9.77 -0.434391,1.2355 0.562984,1.5376 1.115384,0.077 1.885758,-7.0401 2.139741,-7.887 3.19,-9.4933 1.910158,-1.622 3.786608,-3.3275 4.888691,-2.7918 3.499713,2.4478 1.63935,1.1975 2.309233,1.646 z"
     id="path2391"
     inkscape:connector-curvature="0"
     sodipodi:nodetypes="ccccccccc" /><path
     style="fill:#000000;fill-opacity:1;stroke:none;stroke-width:1.00007641px;stroke-linecap:butt;stroke-linejoin:miter;stroke-opacity:1"
     d="m 57.953219,416.5748 c 0.0867,-0.062 0.254591,2.0745 1.3766,1.7947 1.2921,1.0507 2.996733,1.1707 3.619425,1.5345 3.669508,0.9261 3.248108,1.293 5.414749,0.4901 0.2673,-0.1452 0.006,-0.6425 -0.0163,-0.9811 0.17345,-0.9009 0.456625,-0.5941 0.736159,-0.3273 -0.126884,1.7478 0.002,1.7081 0.0818,2.0049 0.245691,0.503 1.190246,1.2443 1.186036,0.9412 0.17065,0.3654 1.78482,-0.095 2.12665,-1.3912 -0.93273,-1.9453 -2.25998,-5.2213 -0.94064,-4.665 l 0.69526,-0.1636 c 0.34061,2.3371 0.92441,3.732 1.06333,5.2786 -1.124,1.9728 -2.26702,2.23 -3.31269,1.7597 -1.29048,-0.2403 -1.61573,-1.217 -1.717688,-1.596 -2.056166,0.6592 -2.857691,0.7086 -5.725625,-0.1228 -1.848033,-0.4903 -2.928191,-2.2378 -3.9057,-2.046 -1.317733,-0.1545 -1.304475,-3.2116 -1.165575,-3.2735 z"
     id="path2397"
     inkscape:connector-curvature="0"
     sodipodi:nodetypes="cccccccccccccccccc" /></svg>