<?xml version="1.0" encoding="UTF-8" standalone="no"?>
<!-- Created with Inkscape (http://www.inkscape.org/) -->

<svg
   xmlns:dc="http://purl.org/dc/elements/1.1/"
   xmlns:cc="http://creativecommons.org/ns#"
   xmlns:rdf="http://www.w3.org/1999/02/22-rdf-syntax-ns#"
   xmlns:svg="http://www.w3.org/2000/svg"
   xmlns="http://www.w3.org/2000/svg"
   version="1.1"
   width="164.21249"
   height="397.51251"
   id="svg2985"
   xml:space="preserve"><metadata
     id="metadata2991"><rdf:RDF><cc:Work
         rdf:about=""><dc:format>image/svg+xml</dc:format><dc:type
           rdf:resource="http://purl.org/dc/dcmitype/StillImage" /><dc:title></dc:title></cc:Work></rdf:RDF></metadata><defs
     id="defs2989"><clipPath
       id="clipPath3001"><path
         d="m 0,0 1313.7,0 0,3180 L 0,3180 0,0 z"
         id="path3003" /></clipPath></defs><g
     transform="matrix(1.25,0,0,-1.25,0,397.5125)"
     id="g2993"><g
       transform="scale(0.1,0.1)"
       id="g2995"><g
         id="g2997"><g
           clip-path="url(#clipPath3001)"
           id="g2999"><path
             d="m 662.613,3180.08 c -45.718,-0.97 -97.269,-12.41 -124.297,-53.33 -33.863,-51.28 -29.878,-107.9 -19.117,-165.41 0.891,-4.75 8.121,-2.73 7.239,1.99 -9.336,49.88 -13.442,94.77 8.07,142.56 22.637,50.28 77.695,65.63 128.105,66.69 4.828,0.1 4.836,7.6 0,7.5 l 0,0"
             id="path3005"
             style="fill:#231f20;fill-opacity:1;fill-rule:nonzero;stroke:none" /><path
             d="m 541.871,2951.32 c -4.613,8.18 -17.035,19.81 -27.871,16.64 -9.535,-2.79 -8.262,-12.69 -7.035,-20.84 2.133,-14.19 8.07,-28.95 12.066,-42.74 3.641,-12.52 8.434,-25.56 19.274,-33.49 3.914,-2.85 7.648,3.66 3.789,6.48 -13.543,9.91 -16.582,31.26 -20.617,46.44 -1.575,5.92 -3.579,11.65 -5.391,17.48 -0.758,2.57 -1.391,5.18 -1.891,7.82 -3.547,16.37 16.59,6.6 21.2,-1.57 2.378,-4.21 8.859,-0.43 6.476,3.78 l 0,0"
             id="path3007"
             style="fill:#231f20;fill-opacity:1;fill-rule:nonzero;stroke:none" /><path
             d="m 557.68,2807.43 c 0.203,-40.44 6.383,-102.7 -40.153,-120.44 -4.468,-1.7 -2.531,-8.95 1.993,-7.23 50.757,19.35 45.878,83.03 45.66,127.67 -0.024,4.84 -7.524,4.84 -7.5,0 l 0,0"
             id="path3009"
             style="fill:#231f20;fill-opacity:1;fill-rule:nonzero;stroke:none" /><path
             d="m 515.434,2686.05 c -55.5,-8.81 -99.543,-47.91 -155.004,-56.72 -4.766,-0.76 -2.739,-7.99 1.992,-7.24 55.504,8.83 99.543,47.92 155.004,56.73 4.765,0.75 2.734,7.98 -1.992,7.23 l 0,0"
             id="path3011"
             style="fill:#231f20;fill-opacity:1;fill-rule:nonzero;stroke:none" /><path
             d="m 357.387,2628.46 c -37.664,-12.75 -76.157,-15.86 -109.133,-39.6 -25.981,-18.7 -39.91,-55.22 -48.93,-84.48 -20.508,-66.53 14.145,-134.34 -1.222,-199.29 -20.473,-86.53 -5.891,-172.06 -19.122,-259.03 -6.269,-41.21 -27.277,-79.22 -36.167,-120.13 -12.77,-58.76 -7.379,-120.62 -17.5,-180 -0.805,-4.73 6.421,-6.75 7.238,-1.99 7.387,43.37 9.152,86.94 11.762,130.79 3.171,53.35 20.496,97.47 37.039,147.21 24.769,74.46 3.222,157.27 14.476,233.56 3.418,23.2 11.574,45.99 13.645,69.29 2.386,26.86 -5.895,55.6 -8.285,82.32 -4.122,46.13 0.226,90.77 19.945,132.97 28.222,60.41 83.246,62.53 138.246,81.15 4.559,1.54 2.601,8.79 -1.992,7.23 l 0,0"
             id="path3013"
             style="fill:#231f20;fill-opacity:1;fill-rule:nonzero;stroke:none" /><path
             d="m 342.527,2388.53 c 27.063,-25.23 18.481,-57.23 35.664,-85.49 13.852,-22.77 31.567,-40.88 53.098,-56.5 44.797,-32.49 119.031,-15.58 162.871,9.32 4.203,2.39 0.426,8.87 -3.789,6.48 -60.969,-34.63 -133.976,-35.04 -184.824,16.21 -33.027,33.29 -23.887,83.75 -57.715,115.29 -3.531,3.29 -8.848,-2 -5.305,-5.31 l 0,0"
             id="path3015"
             style="fill:#231f20;fill-opacity:1;fill-rule:nonzero;stroke:none" /><path
             d="m 721.879,2245.71 c 40.781,-26.13 98.027,-16.16 140.937,-0.37 24.27,8.93 42.629,24.62 59.18,43.84 24.211,28.12 24.942,66.93 49.152,95.16 3.133,3.65 -2.148,8.98 -5.304,5.3 -33.887,-39.5 -34.168,-89.75 -79.766,-123.91 -39.824,-29.84 -117.949,-40.75 -160.41,-13.54 -4.082,2.62 -7.84,-3.88 -3.789,-6.48 l 0,0"
             id="path3017"
             style="fill:#231f20;fill-opacity:1;fill-rule:nonzero;stroke:none" /><path
             d="m 352.68,2312.43 c 4.785,-39.44 24.691,-73.3 27.043,-113.57 2.312,-39.63 7.297,-80.46 15.453,-119.34 11.086,-52.81 24.543,-104.19 8.109,-157.42 -13.414,-43.48 -10.16,-89.36 -19.222,-133.67 -0.961,-4.72 6.265,-6.73 7.238,-1.99 9.054,44.29 6.262,90.13 19.222,133.66 11.372,38.22 8.829,74.4 2.09,113.38 -8.73,50.49 -19.101,99.6 -24.195,150.79 -4.477,45.03 -22.875,83.96 -28.238,128.16 -0.575,4.74 -8.078,4.8 -7.5,0 l 0,0"
             id="path3019"
             style="fill:#231f20;fill-opacity:1;fill-rule:nonzero;stroke:none" /><path
             d="m 385.066,1789.95 c -40.332,-94.06 -20.781,-186.4 -30.531,-284.56 -0.476,-4.81 7.028,-4.76 7.5,0 9.586,96.5 -10.293,187.95 29.508,280.77 1.887,4.4 -4.574,8.23 -6.477,3.79 l 0,0"
             id="path3021"
             style="fill:#231f20;fill-opacity:1;fill-rule:nonzero;stroke:none" /><path
             d="m 354.535,1503.83 c -6.012,-107.59 5.938,-210.8 24.149,-316.66 8.867,-51.52 21.488,-102.04 32.425,-153.12 13.176,-61.57 7.637,-145.159 -0.828,-207.312 -14.086,-103.457 -20.726,-201.379 3.274,-303.867 12.183,-52.019 20.859,-104.371 34.277,-156.191 10.359,-40.008 13.266,-77.328 4.629,-117.969 -3.613,-16.981 -2.828,-30.402 1.602,-46.961 1.25,-4.668 8.488,-2.691 7.238,1.988 -8.656,32.332 2.824,46.321 4.637,74.66 1.582,24.704 -1.993,47.582 -6.606,71.821 -10.051,52.812 -25.019,104.672 -35.039,157.652 -10.977,58.051 -20.84,111.418 -20.012,170.859 0.864,61.852 13.145,121.36 16.907,182.68 3.113,50.809 4.964,106.129 0.082,156.75 -4.43,45.91 -20.332,92 -29.176,137.31 -22.539,115.53 -36.641,230.61 -30.059,348.36 0.27,4.83 -7.23,4.8 -7.5,0 l 0,0"
             id="path3023"
             style="fill:#231f20;fill-opacity:1;fill-rule:nonzero;stroke:none" /><path
             d="M 454.441,204.02 C 439.824,183.762 429.395,160.719 416.168,139.559 404.844,121.441 388.512,106.891 375.055,90.3984 361.738,74.082 344.359,46.8203 371.371,35.6992 c 4.473,-1.8476 6.402,5.4102 1.992,7.2227 -29.332,12.0781 28.434,66.1481 38.469,77.7771 20.402,23.672 30.895,54.321 49.086,79.531 2.836,3.93 -3.672,7.661 -6.477,3.79 l 0,0"
             id="path3025"
             style="fill:#231f20;fill-opacity:1;fill-rule:nonzero;stroke:none" /><path
             d="m 385.969,68.2109 c -6.61,-8.289 -12.5,-18.5898 -12.996,-29.4023 C 372.328,24.7695 386.758,23 397.426,24.4492 c 4.777,0.6406 2.734,7.8711 -1.992,7.2227 -8.875,-1.2031 -16.563,0.3672 -14.528,10.7187 1.453,7.3907 5.715,14.6797 10.364,20.5078 2.984,3.75 -2.29,9.0938 -5.301,5.3125 l 0,0"
             id="path3027"
             style="fill:#231f20;fill-opacity:1;fill-rule:nonzero;stroke:none" /><path
             d="M 407.406,61.6992 C 399.641,53.5586 394.52,40.7617 394.918,29.4922 395.426,15.1406 408.855,14 419.805,17.9609 c 4.511,1.6289 2.566,8.8789 -1.992,7.2305 -3.708,-1.3398 -9.883,-3.8828 -13.442,-0.8594 -2.57,2.1797 -2.082,6.7774 -1.805,9.7071 0.754,7.8007 4.739,16.6797 10.145,22.3515 3.336,3.5 -1.957,8.8203 -5.305,5.3086 l 0,0"
             id="path3029"
             style="fill:#231f20;fill-opacity:1;fill-rule:nonzero;stroke:none" /><path
             d="m 435.344,62.2813 c -9.746,-9.7422 -20.864,-28.3008 -14.68,-42.3907 2.281,-5.1797 8.086,-9.0586 13.629,-9.6406 8.812,-0.91797 16.039,4.1797 21.977,10.1484 3.41,3.4414 -1.895,8.7422 -5.301,5.3125 -6.543,-6.6015 -20.063,-13.4296 -24.336,-0.6211 -1.5,4.4805 1.457,11.129 2.953,15.3321 2.266,6.3476 6.344,11.8398 11.059,16.539 3.421,3.4297 -1.879,8.7383 -5.301,5.3204 l 0,0"
             id="path3031"
             style="fill:#231f20;fill-opacity:1;fill-rule:nonzero;stroke:none" /><path
             d="m 519.043,20.5391 c 5.344,9.9218 15.461,19.3906 19.027,30.0312 8.02,23.8985 8.157,44.2383 23.7,65.7617 22.16,30.68 8.558,54.879 10.476,90.18 0.266,4.828 -7.234,4.808 -7.5,0 -0.625,-11.512 0.16,-21.66 1.891,-32.942 4.578,-29.91 -7.621,-46.179 -22.196,-69.55 -5.668,-9.0981 -6.808,-20.6294 -8.367,-30.9184 -2.972,-19.7227 -14.508,-32.0625 -23.508,-48.7696 -2.293,-4.2617 4.18,-8.0507 6.477,-3.7929 l 0,0"
             id="path3033"
             style="fill:#231f20;fill-opacity:1;fill-rule:nonzero;stroke:none" /><path
             d="m 583.438,748.941 c 29.75,-92.32 0.156,-182.75 -16.368,-273.941 -8.316,-45.898 -10.211,-93.191 -6.98,-139.648 1.672,-24.114 24.711,-104.102 6.172,-124.711 -3.227,-3.602 2.058,-8.922 5.301,-5.321 14.39,16.012 8.472,37.571 4.726,57.051 -13.344,69.449 -12.644,141 -1.988,210.641 14.375,93.847 47.012,182.84 16.375,277.918 -1.481,4.582 -8.723,2.629 -7.238,-1.989 l 0,0"
             id="path3035"
             style="fill:#231f20;fill-opacity:1;fill-rule:nonzero;stroke:none" /><path
             d="m 590.805,749.93 c -4.336,46.429 0.535,91.468 14.871,135.879 12.144,37.652 8.992,77.281 5.785,116.031 -0.398,4.78 -7.902,4.82 -7.5,0 4.254,-51.34 -1.406,-94.598 -14.316,-144.27 -9.059,-34.851 -9.665,-72.039 -6.34,-107.64 0.445,-4.77 7.949,-4.809 7.5,0 l 0,0"
             id="path3037"
             style="fill:#231f20;fill-opacity:1;fill-rule:nonzero;stroke:none" /><path
             d="m 627.629,1540.46 c 21.957,-78.38 4.004,-174.7 -2.957,-254.87 -3.981,-45.81 -11.481,-91.26 -12.692,-137.28 -1.32,-50.14 2.333,-99 -7.886,-148.63 -0.973,-4.719 6.258,-6.731 7.234,-1.989 9.145,44.419 8.406,88.859 8.082,134.049 -0.371,51.58 7.758,102.61 12.762,153.85 7.891,80.83 24.879,177.65 2.691,256.86 -1.304,4.65 -8.539,2.68 -7.234,-1.99 l 0,0"
             id="path3039"
             style="fill:#231f20;fill-opacity:1;fill-rule:nonzero;stroke:none" /><path
             d="m 530.754,1624.28 c 28.82,-43.82 84.465,-92.61 140.707,-84.86 4.773,0.65 2.734,7.88 -1.992,7.22 -52.317,-7.19 -105.563,40.87 -132.242,81.43 -2.649,4.02 -9.141,0.27 -6.473,-3.79 l 0,0"
             id="path3041"
             style="fill:#231f20;fill-opacity:1;fill-rule:nonzero;stroke:none" /><path
             d="m 667.887,1824.08 c -3.274,13.59 -23.242,13.2 -30.653,3.54 -3.507,-4.59 -2.437,-12.11 0.711,-16.49 4.86,-6.76 13.602,-7 20.961,-5.04 4.672,1.24 2.688,8.47 -1.992,7.23 -4.297,-1.14 -9.094,-1.7 -12.512,1.69 -2.285,2.26 -2.25,6.22 -0.687,8.82 1.402,2.34 6.015,3.04 8.414,3.21 3.879,0.29 7.543,-0.89 8.519,-4.95 1.133,-4.71 8.36,-2.71 7.239,1.99 l 0,0"
             id="path3043"
             style="fill:#231f20;fill-opacity:1;fill-rule:nonzero;stroke:none" /><path
             d="m 472.043,2289.64 c 6.547,-7.93 16.773,-10.95 23.52,-1.62 5.257,7.28 2.976,18.22 -5.868,21.04 -4.617,1.48 -6.582,-5.76 -1.992,-7.23 4.168,-1.33 3.504,-6.27 1.789,-9.38 -3.387,-6.13 -9.121,-1.17 -12.148,2.5 -3.082,3.73 -8.356,-1.6 -5.301,-5.31 l 0,0"
             id="path3045"
             style="fill:#231f20;fill-opacity:1;fill-rule:nonzero;stroke:none" /><path
             d="m 356.43,2374.93 c -1.172,-59.87 -12.895,-120.09 -21.817,-179.17 -3.851,-25.52 -7.894,-51.01 -11.824,-76.51 -5.305,-34.39 -19.269,-66.75 -15.109,-101.82 0.562,-4.74 8.066,-4.79 7.5,0 -4.168,35.17 10.324,70.52 15.683,105.32 4.227,27.39 8.532,54.76 12.668,82.16 8.446,55.95 19.289,113.32 20.399,170.02 0.093,4.84 -7.407,4.83 -7.5,0 l 0,0"
             id="path3047"
             style="fill:#231f20;fill-opacity:1;fill-rule:nonzero;stroke:none" /><path
             d="m 306.824,2012.81 c -8.609,-66.85 -16.297,-127.6 -41.742,-190.48 -21.211,-52.42 -48.352,-104.96 -64.769,-158.9 -1.411,-4.64 5.832,-6.61 7.238,-1.99 16.172,53.14 43.972,106.99 64.762,158.89 25.746,64.27 33.253,124.48 42.011,192.48 0.617,4.79 -6.886,4.73 -7.5,0 l 0,0"
             id="path3049"
             style="fill:#231f20;fill-opacity:1;fill-rule:nonzero;stroke:none" /><path
             d="m 473.723,68.2813 c -10.172,-15.5704 -33.118,-39.4024 -16.805,-58.043 7.777,-8.89846 23.508,-10.976581 34.5,-10.01955 13.316,1.15234 22.895,10.22265 28.25,21.88285 2.004,4.3672 -4.457,8.1797 -6.477,3.789 C 508.215,15.0391 500.551,8.51172 488.48,7.46094 478.07,6.55078 462.035,10.4609 458.824,21.7617 c -3.89,13.6875 14.571,32.3086 21.371,42.7305 2.653,4.0664 -3.843,7.8281 -6.472,3.7891 l 0,0"
             id="path3051"
             style="fill:#231f20;fill-opacity:1;fill-rule:nonzero;stroke:none" /><path
             d="m 125.313,1747.18 c -5.61,-37.01 -18.543,-77.42 -45.3833,-104.21 -18.7813,-18.74 -36.4375,-33.3 -44.5742,-59.44 -1.4414,-4.63 5.8008,-6.59 7.2383,-1.99 10.0585,32.35 38.7343,48.51 58.5542,74.01 18.231,23.47 27.067,61.05 31.403,89.64 0.711,4.72 -6.512,6.76 -7.238,1.99 l 0,0"
             id="path3053"
             style="fill:#231f20;fill-opacity:1;fill-rule:nonzero;stroke:none" /><path
             d="m 35.3125,1584.68 c -3.6875,-13.66 -49.2109,-51.19 -31.05469,-65.35 12.88279,-10.05 32.18359,4.13 41.01949,12.72 11.4844,11.17 22.5782,20.56 36.3594,28.8 11.543,6.91 20.4413,15.27 26.7813,27.19 2.27,4.27 -4.203,8.06 -6.477,3.79 -10.0621,-18.94 -27.6285,-24.02 -43.1597,-36.74 -7.9024,-6.48 -14.8204,-13.86 -22.129,-20.97 -3.2109,-3.11 -30.55855,-17.59 -28.49605,-5.31 3.54295,21.11 28.91015,33.56 34.39065,53.88 1.2617,4.68 -5.9727,6.65 -7.2344,1.99 l 0,0"
             id="path3055"
             style="fill:#231f20;fill-opacity:1;fill-rule:nonzero;stroke:none" /><path
             d="m 56.5625,1549.68 c -5.4336,-23.75 -1.4844,-47.83 -5.1484,-71.92 -2.4727,-16.28 -6.5274,-32.33 -9.1914,-48.59 -1.4258,-8.73 -7.7188,-37.49 5.7265,-41.19 14.1953,-3.91 20.8008,13.41 23.7539,23.55 3.9688,13.62 5.4961,28.11 7.5586,42.1 0.4883,3.32 8.8789,40.2 10.336,38 2.6679,-4 9.1679,-0.25 6.4765,3.79 -19.0039,28.52 -25.8594,-51.97 -26.9492,-58.87 -1.8477,-11.68 -3.8125,-23.81 -8.7969,-34.63 -10.1875,-22.1 -12.4023,12.95 -12.457,11.77 0.2695,5.85 1.2852,11.66 2.2305,17.43 2.4531,14.96 5.7226,29.75 8.5468,44.63 4.5391,23.95 -0.2929,48.16 5.1485,71.94 1.0742,4.7 -6.1485,6.71 -7.2344,1.99 l 0,0"
             id="path3057"
             style="fill:#231f20;fill-opacity:1;fill-rule:nonzero;stroke:none" /><path
             d="m 88.9297,1492.43 c -0.3555,-31.35 -5.6719,-61.69 -7.8789,-92.78 -0.6367,-8.96 1.4297,-33.28 14.5469,-33.28 11.8513,0 15.6363,25.04 16.9533,32.57 5.5,31.57 10.066,63.64 16.25,95 0.926,4.72 -6.301,6.74 -7.238,1.99 -7.094,-36.01 -9.317,-73.94 -19.59,-109.32 -5.8871,-20.29 -13.4535,4.84 -13.4222,13.04 0.0351,9.94 2.3281,19.96 3.8945,29.76 3.3164,20.69 3.7461,42.12 3.9844,63.02 0.0547,4.84 -7.4453,4.84 -7.5,0 l 0,0"
             id="path3059"
             style="fill:#231f20;fill-opacity:1;fill-rule:nonzero;stroke:none" /><path
             d="m 128.801,1492.69 c -4.387,-18 -4.531,-42.76 -6.852,-62.48 -2.082,-17.72 -5.894,-41.75 9.164,-54.78 13.926,-12.04 21.551,8.94 23.696,19.08 2.285,10.81 2.656,22.14 3.375,33.14 0.718,10.95 0.765,21.96 1.218,32.93 0.34,7.82 1.078,15.6 2.207,23.36 0.133,0.97 2.297,18.21 5.422,7.03 1.305,-4.65 8.539,-2.68 7.239,1.99 -1.262,4.5 -3.887,9.63 -9.403,9.63 -11.035,0 -11.101,-19.06 -11.703,-25.57 -1.969,-21.3 -1.82,-42.69 -3.535,-64.02 -0.676,-8.42 -1.84,-16.73 -4.078,-24.88 -8.266,-7.43 -13.485,-7.07 -15.656,1.08 -1.594,4.17 -1.688,8.86 -1.946,13.25 -1.656,28.36 7.149,56.36 8.637,84.55 0.519,9.83 -11.59,21.77 -15.023,7.68 -1.141,-4.7 6.089,-6.69 7.238,-1.99 l 0,0"
             id="path3061"
             style="fill:#231f20;fill-opacity:1;fill-rule:nonzero;stroke:none" /><path
             d="m 202.629,1429.52 c 0.09,36.4 -4.617,71.41 -1.141,107.9 3.844,40.43 -9.758,89.28 6.93,127.18 1.93,4.39 -4.531,8.2 -6.477,3.79 -14.816,-33.66 -6.019,-67.73 -5.511,-103.46 0.265,-18.69 -3.559,-37.99 -4.754,-56.68 -1.68,-26.25 3.519,-52.47 3.453,-78.73 -0.016,-4.83 7.484,-4.83 7.5,0 l 0,0"
             id="path3063"
             style="fill:#231f20;fill-opacity:1;fill-rule:nonzero;stroke:none" /><path
             d="m 165.313,1496.44 c 8.652,-27.07 -3.551,-63.83 15.742,-87.62 3.215,-3.96 11.75,-6.28 15.816,-2.36 6.742,6.47 6.434,16.88 5.606,25.55 -0.461,4.77 -7.965,4.82 -7.5,0 0.25,-2.05 0.39,-4.1 0.414,-6.17 -0.024,-1.12 -0.043,-2.24 -0.063,-3.38 0.645,-8.65 -3.726,-9.01 -13.121,-1.08 -2.402,5.79 -3.203,12.39 -4.148,18.53 -3.043,19.66 0.652,39.23 -5.508,58.52 -1.473,4.59 -8.711,2.63 -7.238,-1.99 l 0,0"
             id="path3065"
             style="fill:#231f20;fill-opacity:1;fill-rule:nonzero;stroke:none" /><path
             d="m 572.637,2968.47 c 13.437,5 29.629,6.1 43.066,0.65 2.41,-0.98 11.238,2.75 7.832,4.13 -16.93,6.87 -37.676,4.39 -54.433,-1.85 -6.411,-2.39 -0.414,-4.4 3.535,-2.93 l 0,0"
             id="path3067"
             style="fill:#231f20;fill-opacity:1;fill-rule:nonzero;stroke:none" /><path
             d="m 578.402,2965.95 c 1.754,-5.77 9.356,-8.07 14.688,-8.3 7.707,-0.32 16.25,3.22 18.094,11.27 0.546,2.41 -8.977,0.9 -9.551,-1.62 -0.485,-2.13 -1.168,-3.93 -2.75,-5.49 -0.383,-0.37 1.051,-0.04 -0.461,0.03 -0.902,0.04 -1.762,0.27 -2.629,0.5 -3.125,0.82 -6.738,2.94 -7.73,6.19 -0.739,2.42 -10.352,-0.3 -9.661,-2.58 l 0,0"
             id="path3069"
             style="fill:#231f20;fill-opacity:1;fill-rule:nonzero;stroke:none" /><path
             d="m 474.23,952.16 c -7.488,-9.39 -7.566,-23.031 -7.156,-34.469 0.348,-9.671 1.246,-23.98 8.828,-31.082 3.528,-3.3 8.844,2 5.305,5.321 -5.98,5.59 -6.172,18.32 -6.633,25.761 -0.551,8.899 -0.941,21.758 4.957,29.161 2.985,3.75 -2.289,9.089 -5.301,5.308 l 0,0"
             id="path3071"
             style="fill:#231f20;fill-opacity:1;fill-rule:nonzero;stroke:none" /><path
             d="m 541.402,950.949 c 12.844,-28.847 6.961,-51.301 -5.488,-78.469 -6.891,-15.019 -4.652,-35.82 -6.738,-51.8 -0.625,-4.789 6.883,-4.731 7.5,0 1.808,13.89 2.203,27.902 4.238,41.761 1.649,11.278 9.949,23.079 13.32,34.168 5.926,19.512 1.684,40.071 -6.359,58.133 -1.961,4.406 -8.422,0.578 -6.473,-3.793 l 0,0"
             id="path3073"
             style="fill:#231f20;fill-opacity:1;fill-rule:nonzero;stroke:none" /><path
             d="m 560.219,2990.32 c 16.187,7.01 45.976,12.6 61.836,2.64 4.113,-2.58 7.871,3.91 3.789,6.47 -18.406,11.56 -50.715,5.46 -69.414,-2.64 -4.422,-1.91 -0.602,-8.38 3.789,-6.47 l 0,0"
             id="path3075"
             style="fill:#231f20;fill-opacity:1;fill-rule:nonzero;stroke:none" /><path
             d="m 615.395,2843.78 c 23.523,-8.17 52.55,-6.85 76.015,0.97 5.676,1.89 4.356,7.3 -1.433,5.37 -21.379,-7.12 -47.356,-8.14 -68.77,-0.7 -3.359,1.16 -11.348,-3.71 -5.812,-5.64 l 0,0"
             id="path3077"
             style="fill:#231f20;fill-opacity:1;fill-rule:nonzero;stroke:none" /><path
             d="m 628.828,2831.98 c 7.617,-13.74 42.387,-14.09 49.156,0.77 1.993,4.37 -4.472,8.18 -6.476,3.79 -4.352,-9.56 -31.25,-9.71 -36.203,-0.77 -2.344,4.22 -8.825,0.44 -6.477,-3.79 l 0,0"
             id="path3079"
             style="fill:#231f20;fill-opacity:1;fill-rule:nonzero;stroke:none" /><path
             d="m 214.086,2080.84 c 7.66,-18.24 18.988,-30.55 40.129,-25.95 21.855,4.76 35.949,31.84 44.785,49.71 2.133,4.32 -4.332,8.13 -6.477,3.79 -6.898,-13.96 -14.652,-27.19 -26.046,-37.99 -5.536,-5.24 -12.457,-8.49 -20.036,-9.19 -13.796,-1.27 -20.578,10.8 -25.117,21.62 -1.847,4.39 -9.105,2.46 -7.238,-1.99 l 0,0"
             id="path3081"
             style="fill:#231f20;fill-opacity:1;fill-rule:nonzero;stroke:none" /><path
             d="m 443.93,2633.68 c 58.929,4.41 118.082,-7.47 177.09,-6.44 4.832,0.08 4.839,7.58 0,7.5 -59.008,-1.03 -118.161,10.85 -177.09,6.44 -4.789,-0.35 -4.828,-7.86 0,-7.5 l 0,0"
             id="path3083"
             style="fill:#231f20;fill-opacity:1;fill-rule:nonzero;stroke:none" /><path
             d="m 632.078,2629.39 c 4.508,-10.98 14.11,-16.71 25.942,-16.02 9.992,0.58 20.109,6.77 22.453,16.92 1.074,4.7 -6.153,6.7 -7.246,1.99 -3.641,-15.83 -28.332,-14.49 -33.911,-0.9 -1.812,4.41 -9.074,2.48 -7.238,-1.99 l 0,0"
             id="path3085"
             style="fill:#231f20;fill-opacity:1;fill-rule:nonzero;stroke:none" /><path
             d="m 663.879,2968.28 c -0.094,-10.12 1.254,-20.11 2.621,-30.14 1.82,-13.29 6.688,-20.03 12.117,-31.82 5.645,-12.27 -1.562,-13.89 -11.312,-19.3 -2.969,-1.65 -31.055,-2.47 -35.059,6.05 -2.773,5.9 5.02,14.56 8.395,18.72 1.406,1.74 -3.489,1.46 -4.524,0.19 -6.41,-7.93 -14.945,-21.13 -1.582,-26.4 6.477,-2.56 15.246,-4.37 22.328,-4.91 6.383,-0.49 13.219,4.73 19.469,5.4 10.488,1.14 11.367,9.51 8.586,17.95 -2.98,9.03 -9.738,15.99 -12.121,25.2 -3.184,12.28 -4.192,26.99 -4.074,39.63 0.015,2.11 -4.832,1.12 -4.844,-0.57 l 0,0"
             id="path3087"
             style="fill:#231f20;fill-opacity:1;fill-rule:nonzero;stroke:none" /><path
             d="m 651.695,3171.76 c 48.993,-0.95 94.188,-12.91 122.715,-55.55 30.242,-45.21 19.629,-99.98 12.235,-149.64 -0.704,-4.73 6.523,-6.76 7.246,-1.99 8.164,54.88 15.226,104.44 -13.008,155.41 -25.528,46.09 -80.84,58.33 -129.188,59.27 -4.84,0.09 -4.832,-7.41 0,-7.5 l 0,0"
             id="path3089"
             style="fill:#231f20;fill-opacity:1;fill-rule:nonzero;stroke:none" /><path
             d="m 777.816,2950.19 c 3.809,8.83 11.114,11.6 21.875,8.32 0.403,-4.69 -1.355,-10.05 -2.566,-14.56 -1.574,-5.88 -3.781,-11.59 -5.391,-17.48 -4.152,-15.2 -7.011,-36.49 -20.617,-46.44 -3.867,-2.83 -0.125,-9.34 3.789,-6.48 9.739,7.13 14.055,17.94 17.883,29.06 5.203,15.14 10.066,31.52 13.457,47.16 6.356,29.36 -24.465,22.73 -34.914,4.21 -2.383,-4.22 4.102,-8 6.484,-3.79 l 0,0"
             id="path3091"
             style="fill:#231f20;fill-opacity:1;fill-rule:nonzero;stroke:none" /><path
             d="m 765.16,2892.21 c 0.762,-40.33 -4.512,-67.39 -33.562,-97.4 -20.528,-21.22 -43.743,-38.86 -74.524,-37.79 -31.64,1.1 -52.328,15.85 -74.883,36.65 -30.531,28.15 -34.398,57.54 -33.66,96.86 0.09,4.84 -7.41,4.83 -7.5,0 -0.855,-45.5 3.407,-70 35.86,-102.17 23.554,-23.34 47.093,-37.68 80.183,-38.84 34.219,-1.2 55.91,16.81 79.824,39.98 32.649,31.62 36.602,57.96 35.762,102.71 -0.097,4.83 -7.597,4.84 -7.5,0 l 0,0"
             id="path3093"
             style="fill:#231f20;fill-opacity:1;fill-rule:nonzero;stroke:none" /><path
             d="m 748.512,2809.11 c -0.227,-44.64 -5.098,-108.32 45.652,-127.67 4.531,-1.73 6.465,5.52 1.992,7.24 -46.523,17.73 -40.351,80 -40.144,120.43 0.027,4.84 -7.473,4.84 -7.5,0 l 0,0"
             id="path3095"
             style="fill:#231f20;fill-opacity:1;fill-rule:nonzero;stroke:none" /><path
             d="m 796.266,2680.5 c 55.457,-8.81 99.5,-47.9 155.007,-56.73 4.727,-0.75 6.758,6.48 1.993,7.24 -55.469,8.81 -99.512,47.91 -155.008,56.72 -4.727,0.75 -6.758,-6.48 -1.992,-7.23 l 0,0"
             id="path3097"
             style="fill:#231f20;fill-opacity:1;fill-rule:nonzero;stroke:none" /><path
             d="m 954.313,2622.91 c 51.417,-17.41 98.137,-18.82 131.327,-68.73 28.56,-42.95 29.87,-95.82 26.86,-145.39 -1.48,-24.46 -6.44,-48.66 -8.08,-73.17 -1.74,-25.88 9.07,-53.19 13.44,-78.44 13.45,-77.69 -4.85,-156.04 14.48,-233.56 11.18,-44.86 30.36,-82.92 35.67,-129.96 5.57,-49.39 4.75,-98.87 13.13,-148.04 0.82,-4.76 8.04,-2.74 7.24,1.99 -9.26,54.34 -6.18,109.6 -14.9,163.8 -7.63,47.43 -29.74,89.65 -38.77,136.33 -8.59,44.43 -7.08,90.22 -3.88,135.06 2.92,41.11 -6.19,84.12 -15.24,123.97 -14.67,64.61 13.94,132.3 -1.23,199.29 -7.17,31.71 -25.37,61.22 -48.16,83.89 -27.5,27.37 -75.22,28.45 -109.895,40.19 -4.602,1.56 -6.555,-5.69 -1.992,-7.23 l 0,0"
             id="path3099"
             style="fill:#231f20;fill-opacity:1;fill-rule:nonzero;stroke:none" /><path
             d="m 953.512,2314.11 c -5.403,-44.47 -24.512,-82.73 -28.235,-128.16 -4.199,-51.14 -14.121,-100.63 -24.199,-150.8 -7.683,-38.27 -9.48,-75.86 2.09,-113.36 13.371,-43.31 10.559,-89.29 19.648,-133.48 0.977,-4.73 8.204,-2.73 7.227,1.99 -8.145,39.62 -7.48,80.25 -15.586,119.89 -5.234,25.61 -12.578,47.82 -12.305,74.78 0.313,32.27 9.453,64.84 16.368,96.23 7.531,34.28 10.781,69.89 14.257,104.75 4.453,44.89 22.891,84.16 28.235,128.16 0.574,4.8 -6.926,4.74 -7.5,0 l 0,0"
             id="path3101"
             style="fill:#231f20;fill-opacity:1;fill-rule:nonzero;stroke:none" /><path
             d="m 923.941,1787.55 c 39.227,-92.11 18.204,-184.69 27.715,-280.48 0.477,-4.76 7.977,-4.81 7.5,0 -9.679,97.46 11.043,190.84 -28.742,284.27 -1.894,4.43 -8.348,0.61 -6.473,-3.79 l 0,0"
             id="path3103"
             style="fill:#231f20;fill-opacity:1;fill-rule:nonzero;stroke:none" /><path
             d="m 951.656,1505.51 c 6.278,-112.38 -7.051,-220.95 -26.894,-331.46 -9.231,-51.39 -23.684,-101.75 -32.207,-153.22 -8.332,-50.299 -0.43,-106.791 -0.051,-157.74 0.41,-55.809 16.008,-110.719 16.797,-167.031 0.812,-58.489 -2.996,-112.297 -16.395,-169.52 -12.179,-52.019 -20.871,-104.359 -34.277,-156.187 -6.457,-24.942 -10.012,-49.954 -11.816,-75.563 -2.219,-31.598 14.656,-55.41 5.574,-89.359 -1.25,-4.68 5.996,-6.66 7.246,-1.989 3.301,12.379 5.918,18.36 3.926,31.539 -6.094,40.352 -9.786,73.852 -1.973,114.918 11.105,58.332 26.523,116.383 38.555,174.653 21.074,102.16 21.113,200.738 3.261,303.871 -21.23,122.738 10.137,240.878 31.602,360.438 18.945,105.53 30.148,209.34 24.152,316.65 -0.265,4.8 -7.765,4.83 -7.5,0 l 0,0"
             id="path3105"
             style="fill:#231f20;fill-opacity:1;fill-rule:nonzero;stroke:none" /><path
             d="m 852.777,201.922 c 18.184,-25.211 28.672,-55.863 49.082,-79.531 10.039,-11.629 67.793,-65.6996 38.469,-77.7816 -4.406,-1.8203 -2.48,-9.0703 1.992,-7.2305 26.973,11.1133 9.559,37.3516 -3.097,53.9414 -11.387,14.9177 -25.371,27.5317 -36.68,42.5197 -16.863,22.39 -26.902,49.16 -43.301,71.859 -2.793,3.883 -9.304,0.153 -6.465,-3.777 l 0,0"
             id="path3107"
             style="fill:#231f20;fill-opacity:1;fill-rule:nonzero;stroke:none" /><path
             d="m 922.426,64.5898 c 4.512,-5.6601 8.125,-12.3203 10.07,-19.3085 3.016,-10.8594 -4.738,-13.1993 -14.238,-11.9219 -4.727,0.6523 -6.77,-6.5781 -1.992,-7.2305 11.023,-1.4883 23.328,0.0195 24.441,13.293 0.891,10.7265 -6.621,22.5 -12.988,30.4765 -3.008,3.7813 -8.281,-1.5586 -5.293,-5.3086 l 0,0"
             id="path3109"
             style="fill:#231f20;fill-opacity:1;fill-rule:nonzero;stroke:none" /><path
             d="m 900.98,58.0703 c 5.547,-5.8086 9.083,-14.4492 10.137,-22.3515 1.535,-11.4571 -5.976,-12.1875 -15.234,-8.8399 -4.57,1.6524 -6.504,-5.5976 -1.992,-7.2305 11.543,-4.1796 23.632,-2.6289 24.882,11.5313 0.969,10.9805 -5.027,24.3789 -12.488,32.1992 -3.351,3.5117 -8.644,-1.8086 -5.305,-5.3086 l 0,0"
             id="path3111"
             style="fill:#231f20;fill-opacity:1;fill-rule:nonzero;stroke:none" /><path
             d="m 873.051,58.6484 c 7.637,-7.6171 14.512,-19.3281 14.297,-30.539 -0.078,-4.0703 -4.024,-7.3477 -7.52,-8.5 -6.512,-2.1406 -12.988,3.6406 -17.109,7.789 -3.399,3.4336 -8.711,-1.8671 -5.293,-5.3086 9.98,-10.0507 25.664,-15.53121 34.992,-1.6093 4.004,5.9687 2.039,13.1601 0.293,19.5195 -2.52,9.1797 -7.668,17.2813 -14.367,23.9688 -3.418,3.4101 -8.719,-1.8868 -5.293,-5.3204 l 0,0"
             id="path3113"
             style="fill:#231f20;fill-opacity:1;fill-rule:nonzero;stroke:none" /><path
             d="m 801.117,26.0195 c -7.09,13.1797 -16.621,23.3203 -21.484,37.8516 -4.617,13.7578 -2.344,28.9375 -10.391,41.8279 -10.41,16.692 -23.222,29.121 -24.441,50.66 -0.969,17.172 5.097,34.313 4.148,51.832 -0.273,4.809 -7.773,4.829 -7.5,0 1.946,-35.8 -11.277,-58.953 10.469,-90.179 12.98,-18.6331 16.496,-34.5432 20.469,-56.1331 2.793,-15.1484 15.195,-26.5391 22.265,-39.6484 2.286,-4.2617 8.77,-0.4688 6.465,3.789 l 0,0"
             id="path3115"
             style="fill:#231f20;fill-opacity:1;fill-rule:nonzero;stroke:none" /><path
             d="m 723.012,752.621 c -30.176,-93.652 -0.391,-185.402 16.379,-277.93 11.394,-62.902 8.738,-125.082 0.906,-188.082 -2.977,-23.871 -16.543,-59.16 1.836,-79.597 3.242,-3.602 8.515,1.718 5.293,5.32 -16.289,18.109 1.855,86.137 4.472,107.938 5.528,46.062 4.336,93.66 -2.695,139.519 -14.871,97.152 -50.625,192.563 -18.945,290.84 1.484,4.621 -5.762,6.57 -7.246,1.992 l 0,0"
             id="path3117"
             style="fill:#231f20;fill-opacity:1;fill-rule:nonzero;stroke:none" /><path
             d="m 730.387,751.621 c 3.418,36.578 0.965,71.731 -6.34,107.641 -10.234,50.297 -18.613,92.347 -14.317,144.258 0.403,4.82 -7.109,4.78 -7.5,0 -3.3,-39.911 -4.472,-77.11 5.782,-116.02 12.043,-45.602 19.297,-88.531 14.875,-135.879 -0.449,-4.812 7.058,-4.769 7.5,0 l 0,0"
             id="path3119"
             style="fill:#231f20;fill-opacity:1;fill-rule:nonzero;stroke:none" /><path
             d="m 678.832,1544.14 c -22.34,-79.74 -4.375,-175.49 2.688,-256.87 4.46,-51.43 12.546,-102.13 12.761,-153.85 0.196,-45.26 -1.093,-89.49 8.086,-134.041 0.977,-4.738 8.203,-2.731 7.227,1.991 -10.137,49.25 -7.676,98.71 -7.891,148.63 -0.195,45.83 -8.242,91.71 -12.683,137.27 -7.766,79.59 -24.743,177.09 -2.961,254.88 1.308,4.67 -5.926,6.64 -7.227,1.99 l 0,0"
             id="path3121"
             style="fill:#231f20;fill-opacity:1;fill-rule:nonzero;stroke:none" /><path
             d="m 776.469,1629.75 c -26.68,-40.56 -79.922,-88.63 -132.246,-81.43 -4.727,0.66 -6.766,-6.57 -1.993,-7.22 56.243,-7.75 111.895,41.04 140.704,84.86 2.675,4.06 -3.829,7.81 -6.465,3.79 l 0,0"
             id="path3123"
             style="fill:#231f20;fill-opacity:1;fill-rule:nonzero;stroke:none" /><path
             d="m 820.063,2041.99 c -65.645,0.39 -95.411,85.6 -163.215,82.21 -66.93,-3.34 -98.332,-82.86 -163.227,-83.26 -4.832,-0.03 -4.836,-7.53 0,-7.5 66.516,0.41 96.359,79.93 163.227,83.26 66.996,3.35 96.683,-81.81 163.215,-82.21 4.843,-0.03 4.843,7.47 0,7.5 l 0,0"
             id="path3125"
             style="fill:#231f20;fill-opacity:1;fill-rule:nonzero;stroke:none" /><path
             d="m 828.246,2303.56 c 4.094,-2.94 7.715,-7.21 3.117,-11.3 -2.55,-2.26 -8.254,-3.17 -9.777,0.66 -1.758,4.44 -9.012,2.51 -7.227,-1.99 3.496,-8.82 13.547,-10.11 20.938,-5.04 3.633,2.5 5.937,6.41 5.91,10.85 -0.031,5.81 -4.836,10.18 -9.172,13.29 -3.945,2.83 -7.676,-3.68 -3.789,-6.47 l 0,0"
             id="path3127"
             style="fill:#231f20;fill-opacity:1;fill-rule:nonzero;stroke:none" /><path
             d="m 952.055,2365.97 c 1.008,-51.34 10.215,-102.95 17.55,-153.68 3.856,-26.69 7.95,-53.35 12.04,-80 5.82,-38 19.925,-77.15 17.668,-115.37 -0.286,-4.83 7.217,-4.8 7.497,0 3.1,52.54 -17.001,110.74 -24.951,163.42 -9.226,61.19 -21.093,123.62 -22.304,185.63 -0.086,4.83 -7.586,4.84 -7.5,0 l 0,0"
             id="path3129"
             style="fill:#231f20;fill-opacity:1;fill-rule:nonzero;stroke:none" /><path
             d="m 999.555,2016.18 c 6.175,-62.23 12.605,-120.22 35.635,-178.88 22.45,-57.2 53.15,-115.71 70.95,-174.18 1.4,-4.62 8.65,-2.65 7.24,1.99 -14.92,49.01 -40.25,95.35 -58.55,143.37 -26.55,69.66 -40.39,133.21 -47.77,207.7 -0.47,4.77 -7.982,4.82 -7.505,0 l 0,0"
             id="path3131"
             style="fill:#231f20;fill-opacity:1;fill-rule:nonzero;stroke:none" /><path
             d="m 833.5,66.1719 c 7.715,-11.8321 23.496,-27.4336 21.367,-42.7227 -1.523,-11 -17.996,-13.80076 -26.66,-14.33982 -13.144,-0.8086 -22.48,7.07032 -27.715,18.47262 -2.012,4.3789 -8.476,0.5782 -6.465,-3.7929 11.153,-24.308631 42.696,-29.35941 62.746,-11.8672 18.27,15.9375 -8.125,44.75 -16.808,58.039 -2.625,4.0391 -9.121,0.2774 -6.465,-3.789 l 0,0"
             id="path3133"
             style="fill:#231f20;fill-opacity:1;fill-rule:nonzero;stroke:none" /><path
             d="m 1181.14,1746.87 c 4.57,-30.08 14.45,-62.9 30.75,-88.88 17.56,-27.99 47.63,-41.28 58,-74.87 1.42,-4.61 8.67,-2.64 7.24,1.99 -7.03,22.76 -20.98,37.89 -37.99,54 -30.12,28.53 -44.62,69.22 -50.76,109.75 -0.73,4.77 -7.95,2.73 -7.24,-1.99 l 0,0"
             id="path3135"
             style="fill:#231f20;fill-opacity:1;fill-rule:nonzero;stroke:none" /><path
             d="m 1271.14,1584.37 c 5.33,-19.72 26.66,-32.78 33.88,-52.06 3.93,-10.49 -14.51,-5.33 -18.51,-3.58 -10.52,4.59 -18.98,16.94 -27.34,24.55 -16.08,14.65 -36.57,19.82 -47.43,40.23 -2.26,4.27 -8.74,0.48 -6.46,-3.79 12.97,-24.42 40.92,-33.38 59.74,-52.53 10.94,-11.13 26.96,-24.58 43.66,-16.76 20.31,9.51 -27.47,55.46 -30.3,65.93 -1.27,4.66 -8.49,2.68 -7.24,-1.99 l 0,0"
             id="path3137"
             style="fill:#231f20;fill-opacity:1;fill-rule:nonzero;stroke:none" /><path
             d="m 1249.89,1549.38 c 4.78,-20.84 0.49,-41.2 3.65,-62.05 2.62,-17.24 6.56,-34.19 9.49,-51.36 1.73,-10.11 3.11,-20.1 2.95,-30.37 -4.21,-0.67 -8.42,-1.33 -12.62,-1.99 -1.76,3.74 -3.14,7.59 -4.14,11.6 -2.18,7.5 -3.34,15.35 -4.65,23.02 -1.17,6.85 -7.9,87.44 -26.95,58.88 -2.69,-4.04 3.8,-7.79 6.47,-3.79 1.83,2.76 9.04,-29.29 9.41,-31.75 2.21,-14.42 4.18,-28.83 7.21,-43.11 2.32,-10.99 8.94,-33.22 25.04,-28.79 12.3,3.38 7.53,28.84 6.38,36.66 -2.13,14.51 -5.03,28.89 -7.98,43.25 -5.65,27.35 -0.84,54.84 -7.02,81.79 -1.08,4.72 -8.32,2.71 -7.24,-1.99 l 0,0"
             id="path3139"
             style="fill:#231f20;fill-opacity:1;fill-rule:nonzero;stroke:none" /><path
             d="m 1217.26,1494.12 c 0.22,-18.99 0.48,-38.56 3.17,-57.4 1.41,-9.77 3.13,-19.49 4.28,-29.31 1.05,-8.94 -5.12,-41.02 -12.99,-19.11 -12.25,34.08 -12.62,73.94 -19.59,109.32 -0.93,4.75 -8.16,2.73 -7.24,-1.99 5.62,-28.55 10,-57.8 14.84,-86.57 1.81,-10.67 3.6,-37.08 17.36,-40.86 11.86,-3.27 14.94,20.66 15.57,27.35 1.15,12.19 -2.26,25.58 -4.18,37.54 -3.2,19.97 -3.49,40.85 -3.72,61.03 -0.05,4.84 -7.55,4.84 -7.5,0 l 0,0"
             id="path3141"
             style="fill:#231f20;fill-opacity:1;fill-rule:nonzero;stroke:none" /><path
             d="m 1192.13,1496.37 c -3.02,12.4 -14.54,4.16 -15.05,-4.96 -1.55,-27.41 8.23,-55.49 8.73,-83.05 0.11,-5.91 -0.49,-11.75 -2.02,-17.47 -2.16,-8.14 -7.38,-8.52 -15.65,-1.09 -1.87,5.09 -2.53,11.11 -3.23,16.38 -2.82,21.31 -2.32,42.97 -3.64,64.39 -0.6,9.87 0.75,30.22 -11.45,33.57 -5.69,1.57 -9.22,-5.3 -10.4,-9.49 -1.3,-4.67 5.94,-6.64 7.25,-1.99 4.02,14.4 7.46,-25.79 7.1,-22.09 1.02,-11.03 1.04,-22.18 1.39,-33.22 0.39,-12.13 0.99,-24.66 2.97,-36.66 2.11,-12.72 6.96,-33.25 23.69,-24.15 15.92,8.65 11.69,36.33 10.43,50.43 -1.04,11.82 -2.91,23.59 -4.62,35.34 -1.39,9.62 -0.69,23.66 -2.74,32.07 1.15,-4.7 8.38,-2.71 7.24,1.99 l 0,0"
             id="path3143"
             style="fill:#231f20;fill-opacity:1;fill-rule:nonzero;stroke:none" /><path
             d="m 1118.56,1431.21 c -0.12,45.83 2.25,89.47 -1.3,135.4 -2.74,35.58 9.42,68.05 -5.09,102.09 -1.89,4.44 -8.36,0.61 -6.48,-3.79 15.99,-37.49 2.52,-85.9 6.51,-125.8 3.66,-36.48 -1.23,-71.51 -1.14,-107.9 0.02,-4.83 7.52,-4.83 7.5,0 l 0,0"
             id="path3145"
             style="fill:#231f20;fill-opacity:1;fill-rule:nonzero;stroke:none" /><path
             d="m 1141.14,1500.12 c -5.34,-16.44 -4.63,-33.42 -5.07,-50.5 -0.19,-7.31 -1.55,-14.64 -3.14,-21.75 -1.73,-7.8 -13.49,-15.58 -14.57,-3.73 -0.29,3.18 0.05,6.4 0.36,9.55 0.46,4.82 -7.05,4.77 -7.5,0 -0.65,-6.7 -1.66,-18.57 3.87,-23.89 4.85,-4.66 13.19,-4.94 17.75,0.87 18.67,23.8 6.74,60.45 15.54,87.46 1.5,4.61 -5.74,6.57 -7.24,1.99 l 0,0"
             id="path3147"
             style="fill:#231f20;fill-opacity:1;fill-rule:nonzero;stroke:none" /><path
             d="m 742.543,2973.77 c -17,6.33 -37.43,7.63 -54.453,0.72 -6.297,-2.56 -0.449,-4.91 3.633,-3.26 13.3,5.4 29.882,3.13 43.047,-1.77 2.578,-0.96 11.386,2.97 7.773,4.31 l 0,0"
             id="path3149"
             style="fill:#231f20;fill-opacity:1;fill-rule:nonzero;stroke:none" /><path
             d="m 721,2967.32 c -2.031,-7.86 -10.684,-1.45 -12.695,2.96 -1.2,2.62 -10.567,-0.6 -9.657,-2.59 3.114,-6.8 9.774,-9.18 16.922,-8.15 5.41,0.77 13.418,3.31 14.993,9.36 0.632,2.48 -8.879,1.04 -9.563,-1.58 l 0,0"
             id="path3151"
             style="fill:#231f20;fill-opacity:1;fill-rule:nonzero;stroke:none" /><path
             d="m 766.879,953.852 c -7.481,-9.403 -7.559,-23.032 -7.149,-34.473 0.344,-9.668 1.231,-23.981 8.829,-31.078 3.527,-3.289 8.839,2 5.293,5.32 -5.977,5.578 -6.172,18.328 -6.622,25.758 -0.554,8.902 -0.945,21.762 4.954,29.16 2.976,3.742 -2.297,9.09 -5.305,5.313 l 0,0"
             id="path3153"
             style="fill:#231f20;fill-opacity:1;fill-rule:nonzero;stroke:none" /><path
             d="m 834.047,952.641 c 11.152,-23.539 10.168,-49.672 -2.656,-72.309 -2.383,-4.211 4.093,-7.992 6.476,-3.793 14.219,25.102 14.969,53.891 2.664,79.891 -2.07,4.359 -8.535,0.55 -6.484,-3.789 l 0,0"
             id="path3155"
             style="fill:#231f20;fill-opacity:1;fill-rule:nonzero;stroke:none" /><path
             d="m 753.09,2998.47 c -18.692,8.1 -50.996,14.2 -69.414,2.64 -4.082,-2.56 -0.313,-9.05 3.789,-6.47 15.859,9.96 45.656,4.37 61.836,-2.64 4.394,-1.91 8.222,4.55 3.789,6.47 l 0,0"
             id="path3157"
             style="fill:#231f20;fill-opacity:1;fill-rule:nonzero;stroke:none" /><path
             d="m 1029.49,2061.3 c 22.7,-25.51 57.98,-5.95 65.92,22.53 1.29,4.67 -5.94,6.65 -7.24,1.99 -6.43,-23.08 -34.34,-40.62 -53.38,-19.22 -3.22,3.62 -8.51,-1.71 -5.3,-5.3 l 0,0"
             id="path3159"
             style="fill:#231f20;fill-opacity:1;fill-rule:nonzero;stroke:none" /><path
             d="m 869.762,2642.86 c -58.938,4.41 -118.078,-7.47 -177.09,-6.44 -4.836,0.08 -4.836,-7.42 0,-7.5 59.012,-1.03 118.152,10.85 177.09,6.44 4.832,-0.36 4.793,7.15 0,7.5 l 0,0"
             id="path3161"
             style="fill:#231f20;fill-opacity:1;fill-rule:nonzero;stroke:none" /></g></g></g></g></svg>