<svg width="22" height="22" xmlns="http://www.w3.org/2000/svg" class="bi bi-pencil-square" fill="currentColor">
 <g>
  <title>Layer 1</title>
  <path stroke="null" id="svg_1" d="m19.55437,3.73093a0.29589,0.28814 0 0 1 0,0.40686l-0.61723,0.60166l-1.18355,-1.15258l0.61723,-0.60166a0.29589,0.28814 0 0 1 0.41839,0l0.76517,0.74514l0,0.00058l-0.00001,0zm-1.03561,1.41538l-1.18355,-1.15258l-4.03177,3.92686a0.29589,0.28814 0 0 0 -0.0716,0.11295l-0.47638,1.39117a0.14794,0.14408 0 0 0 0.187,0.18211l1.42854,-0.46391a0.29589,0.28814 0 0 0 0.11599,-0.06916l4.03177,-3.92686l0,-0.00058l0,0.00001l0,-0.00001z"/>
  <path stroke="null" id="svg_2" d="m0.64892,19.89524a2.0038,2.00546 0 0 0 2.0038,2.00546l14.69455,0a2.0038,2.00546 0 0 0 2.0038,-2.00546l0,-8.02182a0.66793,0.66849 0 0 0 -1.33587,0l0,8.02182a0.66793,0.66849 0 0 1 -0.66793,0.66849l-14.69455,0a0.66793,0.66849 0 0 1 -0.66793,-0.66849l0,-14.70667a0.66793,0.66849 0 0 1 0.66793,-0.66849l8.68315,0a0.66793,0.66849 0 0 0 0,-1.33697l-8.68315,0a2.0038,2.00546 0 0 0 -2.0038,2.00546l0,14.70667z" fill-rule="evenodd"/>
  <g id="svg_3" stroke="null">
   <path d="m3.87418,9.87977c-0.30146,0 -0.54561,-0.24962 -0.49891,-0.54454c0.29191,-1.79159 1.6676,-3.09761 4.05489,-3.09761c2.38835,0 3.99864,1.43243 3.99864,3.38621c0,1.41558 -0.7059,2.40983 -1.90007,3.13133c-1.16764,0.6941 -1.50094,1.17754 -1.50094,2.11705l0,0.03159a0.53075,0.52662 0 0 1 -0.53075,0.52662l-0.81735,0a0.53075,0.52662 0 0 1 -0.53075,-0.52136l-0.00319,-0.21064c-0.04564,-1.28602 0.50633,-2.10755 1.74615,-2.85642c1.09333,-0.66566 1.4829,-1.19544 1.4829,-2.13599c0,-1.03113 -0.8046,-1.78842 -2.04444,-1.78842c-1.07105,0 -1.81515,0.55717 -2.05717,1.47665c-0.07005,0.26752 -0.2951,0.48555 -0.5732,0.48555l-0.82478,0l-0.00107,0l0.00002,-0.00003l0.00002,0.00001zm3.20677,8.99688c0.66024,0 1.16233,-0.49925 1.16233,-1.14804c0,-0.6509 -0.50208,-1.15015 -1.16233,-1.15015c-0.64325,0 -1.15384,0.49925 -1.15384,1.1491s0.51057,1.1491 1.15384,1.1491" fill-rule="evenodd" id="svg_4" stroke="null"/>
  </g>
 </g>

</svg>