<?xml version="1.0" encoding="utf-8"?>
<!-- Generator: Adobe Illustrator 15.0.2, SVG Export Plug-In . SVG Version: 6.00 Build 0)  -->
<!DOCTYPE svg PUBLIC "-//W3C//DTD SVG 1.1//EN" "http://www.w3.org/Graphics/SVG/1.1/DTD/svg11.dtd">
<svg version="1.1" id="Ebene_1" xmlns="http://www.w3.org/2000/svg" xmlns:xlink="http://www.w3.org/1999/xlink" x="0px" y="0px"
	 width="841.89px" height="323.469px" viewBox="0 0 841.89 323.469" enable-background="new 0 0 841.89 323.469"
	 xml:space="preserve">
<g>
	<path fill="#13235B" d="M196.339,236.951h-33.163V94.788h-0.472l-31.748,142.163H96.127L65.088,94.788h-0.482v142.163H31.451V66.83
		h51.882l30.799,134.097h0.477L144.936,66.83h51.403V236.951z"/>
	<path fill="#13235B" d="M284.989,240.268c-33.886,0-64.437-20.852-64.437-66.346c0-45.488,30.551-66.34,64.437-66.34
		c33.877,0,64.448,20.852,64.448,66.34C349.437,219.416,318.866,240.268,284.989,240.268z M284.989,135.544
		c-25.584,0-30.327,22.263-30.327,38.377c0,16.116,4.743,38.382,30.327,38.382c25.592,0,30.325-22.266,30.325-38.382
		C315.313,157.807,310.581,135.544,284.989,135.544z"/>
	<path fill="#13235B" d="M410.821,236.951h-35.534V66.83h77.708c32.926,0,52.83,21.088,52.83,54.492
		c0,15.402-8.526,54.256-54.257,54.256h-40.748V236.951z M443.755,146.199c26.539,0,26.539-18.951,26.539-26.533
		c0-16.587-9.25-23.447-31.276-23.447h-28.197v49.98H443.755z"/>
	<path fill="#13235B" d="M625.74,212.303c0,14.931,3.317,18.243,7.342,19.673v4.974h-35.778c-1.891-5.921-2.368-7.82-3.076-14.925
		c-7.577,7.814-18.246,18.242-40.75,18.242c-18.961,0-38.382-10.669-38.382-36.726c0-24.646,15.627-37.197,36.726-40.284
		l29.851-4.498c5.203-0.716,11.608-2.84,11.608-9.952c0-13.981-13.27-14.689-21.801-14.689c-16.581,0-19.427,10.188-20.383,17.53
		H519.12c3.79-38.613,30.563-44.068,56.384-44.068c17.776,0,50.236,5.455,50.236,36.491V212.303z M593.28,175.578
		c-3.317,2.61-8.763,4.748-22.504,6.876c-12.326,2.138-22.514,5.215-22.514,18.955c0,11.603,9.009,15.166,15.397,15.166
		c14.695,0,29.62-9.474,29.62-24.876V175.578z"/>
	<path fill="#13235B" d="M692.579,110.899h20.606v23.697h-20.606v68.469c0,7.338,0.23,10.188,13.741,10.188
		c2.132,0,4.499-0.241,6.865-0.471v25.118c-5.205,0.231-10.426,0.472-15.633,0.472h-4.268c-28.672,0-33.88-10.896-33.88-27.246
		v-76.529h-17.052v-23.697h17.052V76.782h33.174V110.899z"/>
</g>
<g>
	
		<rect x="753.601" y="169.238" transform="matrix(0.8693 0.4943 -0.4943 0.8693 207.1899 -353.6426)" fill="#009EE0" width="37.457" height="91.468"/>
	<path fill="#009EE0" d="M781.639,160.709l32.568,18.515c0,0,2.429-17.315-8.255-23.391
		C795.267,149.758,784.621,155.454,781.639,160.709z"/>
	<polygon fill="#009EE0" points="729.588,252.25 762.144,270.77 727.341,294.073 	"/>
</g>
<g>
	
		<rect x="371.109" y="-70.48" transform="matrix(0.0051 1 -1 0.0051 641.0045 -108.7122)" fill="#39A9DC" width="8.06" height="676.562"/>
</g>
<g>
	
		<rect x="506.314" y="90.764" transform="matrix(0.0082 1 -1 0.0082 810.094 -208.8788)" fill="#39A9DC" width="8.061" height="426.339"/>
</g>
<g>
	<path fill="#39A9DC" d="M69.6,47.449h-7.401V15.716h-0.107l-7.088,31.733h-7.775l-6.924-31.733h-0.108v31.733h-7.404V9.474h11.583
		l6.873,29.935h0.108l6.771-29.935H69.6V47.449z"/>
	<path fill="#39A9DC" d="M89.406,48.188c-7.562,0-14.386-4.656-14.386-14.811S81.844,18.57,89.406,18.57
		c7.563,0,14.385,4.653,14.385,14.807S96.969,48.188,89.406,48.188z M89.406,24.81c-5.711,0-6.773,4.971-6.773,8.568
		c0,3.6,1.062,8.567,6.773,8.567c5.712,0,6.768-4.967,6.768-8.567C96.174,29.78,95.118,24.81,89.406,24.81z"/>
	<path fill="#39A9DC" d="M116.183,22.961h0.108c1.161-1.8,3.383-4.391,8.144-4.391c6.187,0,11.686,4.76,11.686,14.492
		c0,7.722-3.49,15.126-11.844,15.126c-3.072,0-6.346-1.11-8.148-4.285h-0.104v3.546h-7.245V9.474h7.404V22.961z M122.213,24.972
		c-5.079,0-6.345,4.544-6.345,9.042c0,4.179,1.848,8.093,6.558,8.093c4.758,0,6.081-5.183,6.081-8.517
		C128.507,29.147,126.919,24.972,122.213,24.972z"/>
	<path fill="#39A9DC" d="M148.938,15.98h-7.403V9.105h7.403V15.98z M148.938,19.313v28.136h-7.403V19.313H148.938z"/>
	<path fill="#39A9DC" d="M163.647,47.449h-7.402V9.474h7.402V47.449z"/>
	<path fill="#39A9DC" d="M194.914,39.194c-1.956,6.772-7.563,8.994-12.375,8.994c-7.932,0-14.018-3.807-14.018-15.39
		c0-3.384,1.162-14.228,13.487-14.228c5.554,0,13.224,2.646,13.224,15.496v1.321h-19.307c0.215,2.117,0.636,6.878,6.614,6.878
		c2.064,0,4.177-1.059,4.758-3.071H194.914z M187.616,30.578c-0.424-4.553-3.331-5.925-5.714-5.925c-3.489,0-5.34,2.223-5.761,5.925
		H187.616z"/>
	<path fill="#39A9DC" d="M223.391,47.449h-7.932V9.474h17.345c7.352,0,11.792,4.707,11.792,12.164
		c0,3.438-1.902,12.111-12.11,12.111h-9.095V47.449z M230.743,27.194c5.921,0,5.921-4.233,5.921-5.925
		c0-3.702-2.06-5.238-6.983-5.238h-6.29v11.163H230.743z"/>
	<path fill="#39A9DC" d="M271.378,41.944c0,3.336,0.742,4.074,1.639,4.393v1.112h-7.988c-0.421-1.323-0.525-1.749-0.687-3.333
		c-1.692,1.746-4.068,4.072-9.095,4.072c-4.233,0-8.568-2.379-8.568-8.197c0-5.501,3.492-8.306,8.196-8.993l6.665-1.004
		c1.167-0.16,2.595-0.631,2.595-2.221c0-3.12-2.964-3.278-4.869-3.278c-3.699,0-4.334,2.273-4.547,3.912h-7.141
		c0.847-8.619,6.823-9.836,12.59-9.836c3.966,0,11.21,1.217,11.21,8.145V41.944z M264.134,33.749
		c-0.742,0.584-1.958,1.059-5.025,1.536c-2.75,0.474-5.028,1.162-5.028,4.23c0,2.592,2.013,3.384,3.44,3.384
		c3.28,0,6.612-2.115,6.612-5.553V33.749z"/>
	<path fill="#39A9DC" d="M286.307,19.313h4.603V24.6h-4.603v15.287c0,1.638,0.051,2.273,3.068,2.273
		c0.476,0,1.002-0.054,1.535-0.108v5.606c-1.166,0.054-2.331,0.105-3.491,0.105h-0.952c-6.401,0-7.564-2.433-7.564-6.081V24.6
		h-3.807v-5.287h3.807v-7.619h7.404V19.313z"/>
	<path fill="#39A9DC" d="M303.241,15.98h-7.404V9.105h7.404V15.98z M303.241,19.313v28.136h-7.404V19.313H303.241z"/>
	<path fill="#39A9DC" d="M334.505,39.194c-1.956,6.772-7.563,8.994-12.375,8.994c-7.932,0-14.015-3.807-14.015-15.39
		c0-3.384,1.162-14.228,13.487-14.228c5.549,0,13.221,2.646,13.221,15.496v1.321h-19.304c0.213,2.117,0.632,6.878,6.611,6.878
		c2.063,0,4.176-1.059,4.761-3.071H334.505z M327.208,30.578c-0.425-4.553-3.332-5.925-5.714-5.925
		c-3.488,0-5.342,2.223-5.762,5.925H327.208z"/>
	<path fill="#39A9DC" d="M365.194,47.449h-7.404V30.366c0-2.063-0.105-5.556-4.81-5.556c-3.284,0-5.819,2.223-5.819,6.504v16.136
		h-7.401V19.313h7.083v4.125h0.107c1.005-1.692,3.117-4.868,8.46-4.868c5.505,0,9.784,3.227,9.784,9.413V47.449z"/>
	<path fill="#39A9DC" d="M380.394,19.313h4.599V24.6h-4.599v15.287c0,1.638,0.051,2.273,3.066,2.273
		c0.479,0,1.005-0.054,1.533-0.108v5.606c-1.165,0.054-2.326,0.105-3.489,0.105h-0.952c-6.398,0-7.562-2.433-7.562-6.081V24.6
		h-3.808v-5.287h3.808v-7.619h7.404V19.313z"/>
	<path fill="#39A9DC" d="M413.087,39.194c-1.959,6.772-7.565,8.994-12.376,8.994c-7.932,0-14.018-3.807-14.018-15.39
		c0-3.384,1.166-14.228,13.487-14.228c5.552,0,13.222,2.646,13.222,15.496v1.321h-19.301c0.208,2.117,0.631,6.878,6.61,6.878
		c2.063,0,4.175-1.059,4.76-3.071H413.087z M405.785,30.578c-0.418-4.553-3.33-5.925-5.711-5.925c-3.49,0-5.342,2.223-5.765,5.925
		H405.785z"/>
	<path fill="#39A9DC" d="M443.775,47.449h-7.403V30.366c0-2.063-0.103-5.556-4.814-5.556c-3.276,0-5.817,2.223-5.817,6.504v16.136
		h-7.403V19.313h7.086v4.125h0.104c1.011-1.692,3.123-4.868,8.466-4.868c5.502,0,9.782,3.227,9.782,9.413V47.449z"/>
	<path fill="#39A9DC" d="M457.865,22.961h0.104c1.163-1.8,3.383-4.391,8.142-4.391c6.192,0,11.688,4.76,11.688,14.492
		c0,7.722-3.49,15.126-11.848,15.126c-3.066,0-6.343-1.11-8.147-4.285H457.7v3.546h-7.239V9.474h7.404V22.961z M463.89,24.972
		c-5.08,0-6.343,4.544-6.343,9.042c0,4.179,1.847,8.093,6.553,8.093c4.764,0,6.082-5.183,6.082-8.517
		C470.182,29.147,468.597,24.972,463.89,24.972z"/>
	<path fill="#39A9DC" d="M507.169,39.194c-1.955,6.772-7.558,8.994-12.372,8.994c-7.932,0-14.018-3.807-14.018-15.39
		c0-3.384,1.163-14.228,13.488-14.228c5.548,0,13.219,2.646,13.219,15.496v1.321h-19.305c0.216,2.117,0.636,6.878,6.615,6.878
		c2.061,0,4.179-1.059,4.757-3.071H507.169z M499.872,30.578c-0.425-4.553-3.327-5.925-5.717-5.925
		c-3.487,0-5.338,2.223-5.758,5.925H499.872z"/>
	<path fill="#39A9DC" d="M520.992,47.449h-7.404V24.6h-4.075v-5.287h4.075v-2.276c0-5.817,3.168-8.04,8.25-8.04
		c2.168,0,3.174,0.054,3.81,0.108v5.976h-2.067c-2.537,0-2.588,0.792-2.588,3.121v1.112h4.809V24.6h-4.809V47.449z"/>
	<path fill="#39A9DC" d="M529.99,19.313h7.091v4.863h0.103c1.532-2.856,3.225-5.606,7.721-5.606c0.473,0,0.953,0.051,1.426,0.105
		v7.512c-0.635-0.108-1.426-0.108-2.112-0.108c-5.762,0-6.819,3.599-6.819,6.719v14.651h-7.408V19.313z"/>
	<path fill="#39A9DC" d="M572.367,41.944c0,3.336,0.737,4.074,1.64,4.393v1.112h-7.988c-0.42-1.323-0.534-1.749-0.688-3.333
		c-1.691,1.746-4.07,4.072-9.095,4.072c-4.235,0-8.572-2.379-8.572-8.197c0-5.501,3.495-8.306,8.197-8.993l6.671-1.004
		c1.158-0.16,2.584-0.631,2.584-2.221c0-3.12-2.959-3.278-4.859-3.278c-3.702,0-4.34,2.273-4.554,3.912h-7.137
		c0.851-8.619,6.817-9.836,12.587-9.836c3.963,0,11.214,1.217,11.214,8.145V41.944z M565.116,33.749
		c-0.732,0.584-1.954,1.059-5.024,1.536c-2.749,0.474-5.021,1.162-5.021,4.23c0,2.592,2.005,3.384,3.441,3.384
		c3.275,0,6.604-2.115,6.604-5.553V33.749z"/>
	<path fill="#39A9DC" d="M604.271,19.313v26.653c0,4.864-0.369,12.958-14.228,12.958c-5.818,0-11.951-2.484-12.264-8.463h8.03
		c0.321,1.43,0.902,2.855,5.188,2.855c3.968,0,5.871-1.905,5.871-6.45v-3.386l-0.11-0.105c-1.214,2.169-3.064,4.23-7.504,4.23
		c-6.77,0-12.116-4.707-12.116-14.543c0-9.731,5.502-14.492,11.685-14.492c5.239,0,7.359,3.068,8.255,4.922h0.106v-4.179H604.271z
		 M590.628,41.363c5.025,0,6.293-4.278,6.293-8.142c0-4.548-2.222-8.25-6.344-8.25c-2.752,0-5.819,2.007-5.819,8.565
		C584.758,37.133,586.24,41.363,590.628,41.363z"/>
	<path fill="#39A9DC" d="M636.18,47.449h-7.086v-3.968h-0.109c-1.684,3.017-4.649,4.707-8.566,4.707
		c-5.546,0-9.568-3.174-9.568-10.365V19.313h7.404v17.451c0,4.338,2.532,5.18,4.811,5.18c2.43,0,5.712-1.372,5.712-6.398V19.313
		h7.403V47.449z"/>
	<path fill="#39A9DC" d="M668.567,47.449h-7.41V30.366c0-2.063-0.102-5.556-4.802-5.556c-3.287,0-5.821,2.223-5.821,6.504v16.136
		h-7.406V19.313h7.086v4.125h0.111c1.001-1.692,3.112-4.868,8.462-4.868c5.5,0,9.78,3.227,9.78,9.413V47.449z"/>
	<path fill="#39A9DC" d="M701.271,19.313v26.653c0,4.864-0.366,12.958-14.229,12.958c-5.82,0-11.958-2.484-12.271-8.463h8.041
		c0.312,1.43,0.896,2.855,5.176,2.855c3.971,0,5.878-1.905,5.878-6.45v-3.386l-0.107-0.105c-1.217,2.169-3.066,4.23-7.508,4.23
		c-6.768,0-12.109-4.707-12.109-14.543c0-9.731,5.496-14.492,11.685-14.492c5.234,0,7.353,3.068,8.249,4.922h0.109v-4.179H701.271z
		 M687.625,41.363c5.024,0,6.286-4.278,6.286-8.142c0-4.548-2.214-8.25-6.343-8.25c-2.748,0-5.813,2.007-5.813,8.565
		C681.756,37.133,683.231,41.363,687.625,41.363z"/>
</g>
</svg>
