<?xml version="1.0" encoding="utf-8"?>
<!-- Generator: Adobe Illustrator 15.0.2, SVG Export Plug-In . SVG Version: 6.00 Build 0)  -->
<!DOCTYPE svg PUBLIC "-//W3C//DTD SVG 1.1//EN" "http://www.w3.org/Graphics/SVG/1.1/DTD/svg11.dtd">
<svg version="1.1" id="Ebene_1" xmlns="http://www.w3.org/2000/svg" xmlns:xlink="http://www.w3.org/1999/xlink" x="0px" y="0px"
	 width="510.24px" height="368.5px" viewBox="0 0 510.24 368.5" enable-background="new 0 0 510.24 368.5" xml:space="preserve">
<path fill="#13235B" d="M198.434,253.32c-21.366,0.107-40.701-12.941-40.846-41.627c-0.146-28.684,19.057-41.93,40.423-42.038
	c21.364-0.109,40.702,12.941,40.848,41.625C239.003,239.969,219.798,253.213,198.434,253.32z M198.1,187.289
	c-16.136,0.082-19.055,14.137-19.004,24.295c0.052,10.162,3.113,24.191,19.249,24.109c16.137-0.082,19.049-14.141,18.997-24.303
	C217.291,201.232,214.238,187.209,198.1,187.289z"/>
<path fill="#13235B" d="M280.227,255.717l-22.406,0.113l-0.543-107.268l48.996-0.248c20.766-0.105,33.381,13.127,33.488,34.195
	c0.049,9.709-5.205,34.233-34.031,34.379l-25.699,0.129L280.227,255.717z M300.703,198.395
	c16.734-0.086,16.674-12.037,16.648-16.819c-0.053-10.455-5.904-14.758-19.795-14.688l-17.777,0.09l0.158,31.522L300.703,198.395z"
	/>
<path fill="#13235B" d="M415.67,239.496c0.047,9.406,2.148,11.49,4.689,12.377l0.018,3.135l-22.561,0.115
	c-1.213-3.727-1.514-4.92-1.992-9.4c-4.748,4.949-11.445,11.559-25.633,11.631c-11.953,0.061-24.234-6.6-24.318-23.033
	c-0.078-15.539,9.74-23.506,23.029-25.52l18.807-2.928c3.283-0.465,7.309-1.832,7.287-6.314c-0.045-8.816-8.41-9.219-13.789-9.191
	c-10.461,0.053-12.221,6.486-12.797,11.117l-20.166,0.104c2.266-24.366,19.131-27.887,35.416-27.969
	c11.203-0.057,31.693,3.275,31.791,22.85L415.67,239.496z M395.08,216.438c-2.082,1.658-5.508,3.021-14.168,4.406
	c-7.764,1.385-14.176,3.361-14.131,12.025c0.037,7.322,5.729,9.535,9.758,9.516c9.262-0.047,18.643-6.072,18.594-15.781
	L395.08,216.438z"/>
<path fill="#13235B" d="M457.492,175.339l12.992-0.066l0.076,14.938l-12.992,0.066l0.219,43.176
	c0.023,4.633,0.178,6.428,8.695,6.385c1.35-0.008,2.834-0.166,4.326-0.324l0.08,15.836c-3.279,0.172-6.572,0.33-9.855,0.348
	l-2.688,0.014c-18.078,0.092-21.4-6.762-21.453-17.074l-0.244-48.254l-10.758,0.055l-0.074-14.938l10.758-0.055l-0.109-21.514
	l20.92-0.105L457.492,175.339z"/>
<path fill="#13235B" d="M142.527,251.512l-20.916,0.105l-0.453-89.637h-0.294l-19.569,89.741l-21.959,0.109l-20.029-89.538h-0.299
	l0.454,89.639l-20.912,0.105l-0.542-107.264l32.713-0.166l19.853,84.458l0.299-0.002l18.698-84.653l32.414-0.164L142.527,251.512z"
	/>
<line fill="none" stroke="#009EE0" stroke-width="3" x1="129.1" y1="118.966" x2="400.947" y2="117.591"/>
<line fill="none" stroke="#009EE0" stroke-width="3" x1="135.027" y1="85.039" x2="359.521" y2="83.902"/>
<g>
	
		<rect x="426.28" y="39.937" transform="matrix(0.8693 0.4942 -0.4942 0.8693 91.6649 -207.5905)" fill="#009EE0" width="24.26" height="59.233"/>
	<path fill="#009EE0" d="M444.439,34.412L465.527,46.4c0,0,1.576-11.213-5.342-15.145C453.266,27.32,446.371,31.009,444.439,34.412z
		"/>
	<polygon fill="#009EE0" points="410.729,93.695 431.816,105.687 409.279,120.779 	"/>
</g>
<g>
	<path fill="#13235B" d="M39.914,269.49h7.449l5.631,16.553h0.068l5.324-16.553h7.451v24.07h-4.955v-17.059h-0.068l-5.899,17.059
		h-4.079l-5.898-16.889h-0.068v16.889h-4.955V269.49z"/>
	<path fill="#13235B" d="M78.449,275.66c5.494,0,9.033,3.639,9.033,9.201c0,5.529-3.539,9.17-9.033,9.17
		c-5.462,0-9.002-3.641-9.002-9.17C69.447,279.299,72.987,275.66,78.449,275.66z M78.449,290.424c3.27,0,4.248-2.799,4.248-5.563
		c0-2.797-0.979-5.594-4.248-5.594c-3.236,0-4.215,2.797-4.215,5.594C74.234,287.625,75.212,290.424,78.449,290.424z"/>
	<path fill="#13235B" d="M90.586,269.49h4.786v8.766h0.067c1.18-1.787,3.338-2.596,5.495-2.596c3.473,0,7.214,2.797,7.214,9.168
		c0,6.406-3.741,9.203-7.214,9.203c-2.562,0-4.686-0.775-5.73-2.697h-0.068v2.227h-4.55V269.49z M99.283,279.268
		c-2.831,0-4.078,2.662-4.078,5.594c0,2.898,1.247,5.563,4.078,5.563c2.832,0,4.079-2.664,4.079-5.563
		C103.362,281.93,102.115,279.268,99.283,279.268z"/>
	<path fill="#13235B" d="M116.107,273.436h-4.787v-3.945h4.787V273.436z M111.32,276.131h4.787v17.43h-4.787V276.131z"/>
	<path fill="#13235B" d="M120.019,269.49h4.785v24.07h-4.785V269.49z"/>
	<path fill="#13235B" d="M132.527,286.008c0.134,3.035,1.617,4.416,4.28,4.416c1.921,0,3.472-1.18,3.776-2.258h4.213
		c-1.348,4.111-4.213,5.865-8.158,5.865c-5.494,0-8.899-3.775-8.899-9.17c0-5.225,3.606-9.201,8.899-9.201
		c5.934,0,8.799,4.986,8.462,10.348H132.527z M140.312,282.975c-0.438-2.428-1.482-3.707-3.809-3.707
		c-3.033,0-3.91,2.357-3.977,3.707H140.312z"/>
	<path fill="#13235B" d="M157.812,269.49h10.854c6.001,0,8.327,3.811,8.327,7.719c0,3.91-2.326,7.721-8.327,7.721h-5.562v8.631
		h-5.292V269.49z M163.104,280.816h4.112c2.461,0,4.652-0.541,4.652-3.607s-2.191-3.605-4.652-3.605h-4.112V280.816z"/>
	<path fill="#13235B" d="M179.591,281.49c0.27-4.484,4.281-5.83,8.189-5.83c3.474,0,7.653,0.773,7.653,4.953v9.07
		c0,1.584,0.169,3.168,0.606,3.877h-4.854c-0.17-0.541-0.305-1.111-0.337-1.688c-1.517,1.584-3.742,2.158-5.866,2.158
		c-3.304,0-5.933-1.65-5.933-5.225c0-3.945,2.966-4.889,5.933-5.293c2.934-0.439,5.664-0.338,5.664-2.293
		c0-2.057-1.416-2.359-3.102-2.359c-1.82,0-3,0.742-3.168,2.629H179.591z M190.648,285.029c-0.81,0.709-2.495,0.742-3.979,1.014
		c-1.482,0.303-2.832,0.807-2.832,2.561c0,1.787,1.383,2.225,2.934,2.225c3.742,0,3.877-2.965,3.877-4.012V285.029z"/>
	<path fill="#13235B" d="M205.212,276.131h3.506v3.201h-3.506v8.631c0,1.619,0.404,2.023,2.023,2.023
		c0.505,0,0.977-0.033,1.482-0.137v3.742c-0.809,0.135-1.854,0.17-2.798,0.17c-2.933,0-5.495-0.674-5.495-4.146v-10.283h-2.898
		v-3.201h2.898v-5.225h4.787V276.131z"/>
	<path fill="#13235B" d="M215.934,273.436h-4.787v-3.945h4.787V273.436z M211.147,276.131h4.787v17.43h-4.787V276.131z"/>
	<path fill="#13235B" d="M223.654,286.008c0.135,3.035,1.618,4.416,4.281,4.416c1.922,0,3.473-1.18,3.777-2.258h4.213
		c-1.349,4.111-4.213,5.865-8.158,5.865c-5.495,0-8.899-3.775-8.899-9.17c0-5.225,3.608-9.201,8.899-9.201
		c5.933,0,8.798,4.986,8.461,10.348H223.654z M231.441,282.975c-0.438-2.428-1.482-3.707-3.808-3.707
		c-3.035,0-3.912,2.357-3.979,3.707H231.441z"/>
	<path fill="#13235B" d="M239.062,276.131h4.551v2.428h0.102c1.213-1.955,3.303-2.898,5.326-2.898c5.09,0,6.37,2.865,6.37,7.18
		v10.721h-4.786v-9.846c0-2.863-0.843-4.279-3.066-4.279c-2.597,0-3.709,1.449-3.709,4.988v9.137h-4.787V276.131z"/>
	<path fill="#13235B" d="M265.121,276.131h3.508v3.201h-3.508v8.631c0,1.619,0.406,2.023,2.023,2.023
		c0.506,0,0.979-0.033,1.484-0.137v3.742c-0.809,0.135-1.855,0.17-2.799,0.17c-2.932,0-5.494-0.674-5.494-4.146v-10.283h-2.898
		v-3.201h2.898v-5.225h4.785V276.131z"/>
	<path fill="#13235B" d="M274.865,286.008c0.135,3.035,1.619,4.416,4.281,4.416c1.922,0,3.473-1.18,3.775-2.258h4.215
		c-1.35,4.111-4.215,5.865-8.158,5.865c-5.496,0-8.9-3.775-8.9-9.17c0-5.225,3.607-9.201,8.9-9.201
		c5.932,0,8.797,4.986,8.461,10.348H274.865z M282.652,282.975c-0.438-2.428-1.484-3.707-3.809-3.707
		c-3.035,0-3.91,2.357-3.979,3.707H282.652z"/>
	<path fill="#13235B" d="M290.273,276.131h4.551v2.428h0.102c1.213-1.955,3.303-2.898,5.326-2.898c5.09,0,6.371,2.865,6.371,7.18
		v10.721h-4.787v-9.846c0-2.863-0.844-4.279-3.068-4.279c-2.596,0-3.707,1.449-3.707,4.988v9.137h-4.787V276.131z"/>
	<path fill="#13235B" d="M310.266,269.49h4.787v8.766h0.066c1.18-1.787,3.338-2.596,5.494-2.596c3.473,0,7.215,2.797,7.215,9.168
		c0,6.406-3.742,9.203-7.215,9.203c-2.561,0-4.684-0.775-5.73-2.697h-0.066v2.227h-4.551V269.49z M318.963,279.268
		c-2.832,0-4.08,2.662-4.08,5.594c0,2.898,1.248,5.563,4.08,5.563s4.078-2.664,4.078-5.563
		C323.041,281.93,321.795,279.268,318.963,279.268z"/>
	<path fill="#13235B" d="M334.809,286.008c0.135,3.035,1.617,4.416,4.281,4.416c1.922,0,3.473-1.18,3.775-2.258h4.213
		c-1.348,4.111-4.213,5.865-8.158,5.865c-5.494,0-8.898-3.775-8.898-9.17c0-5.225,3.607-9.201,8.898-9.201
		c5.934,0,8.799,4.986,8.463,10.348H334.809z M342.596,282.975c-0.438-2.428-1.484-3.707-3.809-3.707
		c-3.035,0-3.912,2.357-3.979,3.707H342.596z"/>
	<path fill="#13235B" d="M351.262,279.332h-2.867v-3.201h2.867v-1.35c0-3.066,1.92-5.291,5.83-5.291
		c0.844,0,1.721,0.102,2.529,0.135v3.572c-0.572-0.066-1.146-0.1-1.754-0.1c-1.281,0-1.818,0.539-1.818,1.986v1.047h3.303v3.201
		h-3.303v14.229h-4.787V279.332z"/>
	<path fill="#13235B" d="M361.443,276.131h4.549v3.236h0.068c0.877-2.191,3.236-3.707,5.563-3.707c0.336,0,0.742,0.064,1.045,0.168
		v4.447c-0.439-0.1-1.146-0.166-1.721-0.166c-3.504,0-4.719,2.527-4.719,5.596v7.855h-4.785V276.131z"/>
	<path fill="#13235B" d="M374.355,281.49c0.268-4.484,4.281-5.83,8.189-5.83c3.473,0,7.654,0.773,7.654,4.953v9.07
		c0,1.584,0.168,3.168,0.605,3.877h-4.854c-0.168-0.541-0.305-1.111-0.338-1.688c-1.518,1.584-3.74,2.158-5.865,2.158
		c-3.305,0-5.932-1.65-5.932-5.225c0-3.945,2.965-4.889,5.932-5.293c2.934-0.439,5.664-0.338,5.664-2.293
		c0-2.057-1.416-2.359-3.102-2.359c-1.82,0-3,0.742-3.168,2.629H374.355z M385.412,285.029c-0.811,0.709-2.494,0.742-3.979,1.014
		c-1.482,0.303-2.832,0.807-2.832,2.561c0,1.787,1.383,2.225,2.934,2.225c3.742,0,3.877-2.965,3.877-4.012V285.029z"/>
	<path fill="#13235B" d="M410.662,292.449c0,2.863-1.01,7.717-9.035,7.717c-3.438,0-7.449-1.617-7.684-5.596h4.752
		c0.439,1.787,1.887,2.395,3.572,2.395c2.664,0,3.879-1.82,3.844-4.316v-2.293h-0.066c-1.047,1.822-3.135,2.697-5.227,2.697
		c-5.225,0-7.449-3.977-7.449-8.764c0-4.518,2.596-8.629,7.484-8.629c2.291,0,4.045,0.773,5.191,2.797h0.066v-2.326h4.551V292.449z
		 M406.111,284.627c0-2.832-0.977-5.359-4.078-5.359c-2.697,0-3.877,2.357-3.877,4.953c0,2.496,0.943,5.225,3.877,5.225
		C404.764,289.445,406.111,287.121,406.111,284.627z"/>
	<path fill="#13235B" d="M430.857,293.561h-4.551v-2.43h-0.102c-1.213,1.957-3.303,2.9-5.326,2.9c-5.09,0-6.371-2.865-6.371-7.182
		v-10.719h4.787v9.844c0,2.863,0.842,4.281,3.066,4.281c2.598,0,3.709-1.449,3.709-4.988v-9.137h4.787V293.561z"/>
	<path fill="#13235B" d="M434.5,276.131h4.551v2.428h0.102c1.213-1.955,3.303-2.898,5.326-2.898c5.09,0,6.371,2.865,6.371,7.18
		v10.721h-4.787v-9.846c0-2.863-0.844-4.279-3.068-4.279c-2.596,0-3.707,1.449-3.707,4.988v9.137H434.5V276.131z"/>
	<path fill="#13235B" d="M471.246,292.449c0,2.863-1.012,7.717-9.033,7.717c-3.441,0-7.451-1.617-7.688-5.596h4.754
		c0.438,1.787,1.887,2.395,3.572,2.395c2.664,0,3.877-1.82,3.844-4.316v-2.293h-0.066c-1.047,1.822-3.137,2.697-5.227,2.697
		c-5.225,0-7.449-3.977-7.449-8.764c0-4.518,2.596-8.629,7.484-8.629c2.291,0,4.045,0.773,5.191,2.797h0.066v-2.326h4.551V292.449z
		 M466.695,284.627c0-2.832-0.979-5.359-4.08-5.359c-2.695,0-3.875,2.357-3.875,4.953c0,2.496,0.943,5.225,3.875,5.225
		C465.348,289.445,466.695,287.121,466.695,284.627z"/>
</g>
<path fill="none" stroke="#009EE0" stroke-width="14" stroke-miterlimit="10" d="M98.735,16.396h388.96
	c6.328,0,11.457,5.13,11.457,11.458v318.804c0,6.326-5.129,11.457-11.457,11.457H22.245c-6.328,0-11.458-5.131-11.458-11.457
	V104.345L98.735,16.396z"/>
<path fill="#009EE0" d="M110.674,11.622c1.729,2.007,2.781,4.613,2.781,7.47v89.277c0,6.328-5.13,11.458-11.458,11.458H12.72
	c-2.857,0-5.463-1.053-7.471-2.781L110.674,11.622z"/>
</svg>
